<svg xmlns="http://www.w3.org/2000/svg" viewBox="0 0 1064 2147"><defs><style>.cls-1{fill:#333343;}.cls-2{fill:#fff;}.cls-3{fill:#3e3d51;}.cls-4{fill:#8282a8;}.cls-5{fill:#ece1ef;}.cls-6{fill:#b1b1de;}.cls-7{fill:#ff7685;}.cls-8{fill:#fbf3ff;}.cls-9{fill:#f6a390;}.cls-10{fill:#f47458;}.cls-11{fill:#f48c7f;}.cls-12{fill:#f7a491;}.cls-13{fill:#d6d6ed;}.cls-14{fill:#efefef;}</style></defs><g id="Layer_2" data-name="Layer 2"><g id="Layer_1-2" data-name="Layer 1"><path class="cls-1" d="M1047.37,339.5h-2V127.36A127.36,127.36,0,0,0,918,0H146A127.36,127.36,0,0,0,18.65,127.36V339.5h-2A16.62,16.62,0,0,0,0,356.13V502.87A16.62,16.62,0,0,0,16.63,519.5h2v35h-2A16.62,16.62,0,0,0,0,571.13V717.87A16.62,16.62,0,0,0,16.63,734.5h2V2019.64A127.36,127.36,0,0,0,146,2147H918a127.36,127.36,0,0,0,127.36-127.36V609.5h2A16.62,16.62,0,0,0,1064,592.87V356.13A16.62,16.62,0,0,0,1047.37,339.5Z"/><rect class="cls-2" x="55.71" y="31.5" width="952.58" height="2084" rx="103.44"/><path class="cls-3" d="M221.33,166.81h-61a2.5,2.5,0,1,1,0-5h61a2.5,2.5,0,0,1,0,5Z"/><path class="cls-3" d="M221.33,189.31h-61a2.5,2.5,0,1,1,0-5h61a2.5,2.5,0,0,1,0,5Z"/><path class="cls-3" d="M221.33,211.81h-61a2.5,2.5,0,1,1,0-5h61a2.5,2.5,0,0,1,0,5Z"/><path class="cls-3" d="M759.58,198.69a13.48,13.48,0,0,1-5-2.72l1.58-3.35a13.13,13.13,0,0,0,4.4,2.51,16.18,16.18,0,0,0,5.51,1,10,10,0,0,0,5.57-1.26,3.9,3.9,0,0,0,1.84-3.37,3.29,3.29,0,0,0-1-2.5,6.74,6.74,0,0,0-2.49-1.48c-1-.35-2.38-.73-4.18-1.16a43.23,43.23,0,0,1-5.47-1.63,9.08,9.08,0,0,1-3.56-2.51,6.72,6.72,0,0,1-1.48-4.56,7.74,7.74,0,0,1,1.27-4.33,8.62,8.62,0,0,1,3.84-3.09,15.55,15.55,0,0,1,6.38-1.16,20.16,20.16,0,0,1,5.24.69,13.72,13.72,0,0,1,4.41,2l-1.41,3.43a15.4,15.4,0,0,0-4-1.82,14.88,14.88,0,0,0-4.21-.63,9.29,9.29,0,0,0-5.46,1.33,4.06,4.06,0,0,0-1.82,3.43,3.27,3.27,0,0,0,1,2.51,6.84,6.84,0,0,0,2.55,1.5,38.72,38.72,0,0,0,4.13,1.14,41.81,41.81,0,0,1,5.45,1.63,9.11,9.11,0,0,1,3.53,2.48,6.56,6.56,0,0,1,1.48,4.51,7.67,7.67,0,0,1-1.28,4.31,8.65,8.65,0,0,1-3.9,3.08,16.12,16.12,0,0,1-6.43,1.14A20.54,20.54,0,0,1,759.58,198.69Z"/><path class="cls-3" d="M792.23,188.81l-4.72,4.37v6.21h-4.12V167.58h4.12V188l12.39-11.32h5l-9.56,9.39,10.51,13.33h-5.06Z"/><path class="cls-3" d="M809.57,171.53a2.55,2.55,0,0,1-.8-1.89,2.61,2.61,0,0,1,.8-1.91,2.69,2.69,0,0,1,2-.79,2.76,2.76,0,0,1,2,.75,2.46,2.46,0,0,1,.8,1.87,2.72,2.72,0,0,1-2.79,2.74A2.75,2.75,0,0,1,809.57,171.53Zm-.07,5.14h4.12v22.72H809.5Z"/><path class="cls-3" d="M839.43,177.92a10.46,10.46,0,0,1,4.09,4.07,12,12,0,0,1,1.48,6,12.16,12.16,0,0,1-1.48,6.07,10.38,10.38,0,0,1-4.09,4.09,11.89,11.89,0,0,1-5.92,1.46,10.51,10.51,0,0,1-4.48-.94,9.28,9.28,0,0,1-3.45-2.74v11.74h-4.12v-31h3.95v3.6a8.82,8.82,0,0,1,3.47-2.85,11,11,0,0,1,4.63-1A11.89,11.89,0,0,1,839.43,177.92ZM837.09,195a7.27,7.27,0,0,0,2.75-2.83,9.24,9.24,0,0,0,0-8.36,7.12,7.12,0,0,0-2.75-2.8,7.77,7.77,0,0,0-3.92-1,7.61,7.61,0,0,0-3.88,1,7.33,7.33,0,0,0-2.75,2.8,8.42,8.42,0,0,0-1,4.16,8.69,8.69,0,0,0,1,4.18,7,7,0,0,0,2.75,2.83,8.07,8.07,0,0,0,7.82,0Z"/><path class="cls-3" d="M858.5,234.48H741.17a47.67,47.67,0,1,1,0-95.34H858.5a47.67,47.67,0,0,1,0,95.34ZM741.17,144.14a42.67,42.67,0,1,0,0,85.34H858.5a42.67,42.67,0,0,0,0-85.34Z"/><path class="cls-4" d="M470.81,1927a15.28,15.28,0,1,0,15.28,15.28A15.3,15.3,0,0,0,470.81,1927Z"/><path class="cls-4" d="M532,1957.78a15.28,15.28,0,1,1,15.28-15.28A15.3,15.3,0,0,1,532,1957.78Zm0-25.56a10.28,10.28,0,1,0,10.28,10.28A10.29,10.29,0,0,0,532,1932.22Z"/><path class="cls-4" d="M593.19,1958a15.28,15.28,0,1,1,15.28-15.28A15.3,15.3,0,0,1,593.19,1958Zm0-25.55a10.28,10.28,0,1,0,10.28,10.27A10.29,10.29,0,0,0,593.19,1932.45Z"/><path class="cls-3" d="M212.65,1455.15h17.89v81.21h50.39v15.14H212.65Z"/><path class="cls-3" d="M305.7,1547.65a35.18,35.18,0,0,1-14-13.42,37.91,37.91,0,0,1-5-19.48,37.53,37.53,0,0,1,5-19.41,35.28,35.28,0,0,1,14-13.35,44.61,44.61,0,0,1,40.34,0,35.28,35.28,0,0,1,14,13.35,37.53,37.53,0,0,1,5,19.41,37.91,37.91,0,0,1-5,19.48,35.18,35.18,0,0,1-14,13.42,44.61,44.61,0,0,1-40.34,0Zm35.79-16.24q6.19-6.33,6.2-16.66t-6.2-16.66a21,21,0,0,0-15.69-6.33,20.79,20.79,0,0,0-15.62,6.33q-6.14,6.35-6.13,16.66t6.13,16.66a20.79,20.79,0,0,0,15.62,6.33A21,21,0,0,0,341.49,1531.41Z"/><path class="cls-3" d="M424.08,1477.17v16.38a22.32,22.32,0,0,0-4-.41q-10.05,0-15.69,5.85t-5.64,16.86v35.65H381.55V1478h16.38v10.73Q405.36,1477.18,424.08,1477.17Z"/><path class="cls-3" d="M506.81,1520.26H449.14a20,20,0,0,0,7.91,12.87q6.4,4.74,15.9,4.74,12.1,0,20-8l9.22,10.6a31.06,31.06,0,0,1-12.52,9,49.63,49.63,0,0,1-38.41-1.79A34.72,34.72,0,0,1,437,1534.23a37.91,37.91,0,0,1-5-19.48,38.45,38.45,0,0,1,4.89-19.34A34.58,34.58,0,0,1,450.38,1482a39.55,39.55,0,0,1,19.54-4.82,38.5,38.5,0,0,1,19.2,4.75,33.69,33.69,0,0,1,13.22,13.35,40.58,40.58,0,0,1,4.75,19.89C507.09,1516.36,507,1518.05,506.81,1520.26ZM456,1495.82a20.54,20.54,0,0,0-6.95,13h41.71a20.1,20.1,0,0,0-20.79-17.89A20.8,20.8,0,0,0,456,1495.82Z"/><path class="cls-3" d="M638.41,1485.22q8.12,8.05,8.12,24.16v42.12H629.32v-39.92q0-9.63-4.27-14.52t-12.25-4.89q-8.67,0-13.9,5.72t-5.23,16.31v37.3H576.46v-39.92q0-9.63-4.26-14.52T560,1492.17q-8.82,0-14,5.65t-5.16,16.38v37.3h-17.2V1478H540v9.36a26.61,26.61,0,0,1,10.32-7.57,34.94,34.94,0,0,1,13.76-2.62,33.15,33.15,0,0,1,14.66,3.1,23.69,23.69,0,0,1,10.12,9.15,30.62,30.62,0,0,1,11.7-9,37.94,37.94,0,0,1,15.83-3.24Q630.29,1477.17,638.41,1485.22Z"/><path class="cls-3" d="M711.77,1550.13a44,44,0,0,1-13.62-5.92l6.6-13.08a42.56,42.56,0,0,0,11.91,5.3,49.48,49.48,0,0,0,13.7,2q15.4,0,15.41-8.13c0-2.56-1.3-4.35-3.92-5.36a67.71,67.71,0,0,0-12.6-2.9,101.47,101.47,0,0,1-14.79-3.16,22.64,22.64,0,0,1-9.91-6.26q-4.2-4.48-4.2-12.46a19.6,19.6,0,0,1,8.74-16.73q8.74-6.26,23.61-6.26a68.6,68.6,0,0,1,15.14,1.72,42.92,42.92,0,0,1,12.39,4.61l-6.61,13.08a40.76,40.76,0,0,0-21.06-5.51q-7.57,0-11.5,2.27t-3.92,6q0,4.14,4.2,5.85a66.39,66.39,0,0,0,13,3.24,101.15,101.15,0,0,1,14.45,3.16,22.79,22.79,0,0,1,9.71,6.06q4.05,4.27,4.06,12.11,0,10.34-9,16.52t-24.37,6.2A65.83,65.83,0,0,1,711.77,1550.13Z"/><path class="cls-3" d="M778.26,1462.92a10.13,10.13,0,0,1,0-14.72,11,11,0,0,1,7.85-3,11.37,11.37,0,0,1,7.84,2.82,9.09,9.09,0,0,1,3.17,7.09,10.38,10.38,0,0,1-3.1,7.64,10.72,10.72,0,0,1-7.91,3.09A11,11,0,0,1,778.26,1462.92Zm-.83,15.08h17.21v73.5H777.43Z"/><path class="cls-3" d="M861.4,1547.51a20.39,20.39,0,0,1-7.37,3.72,33.37,33.37,0,0,1-9.15,1.24q-12.12,0-18.72-6.34t-6.61-18.44v-35.38H807.44v-13.76h12.11v-16.8h17.21v16.8h19.68v13.76H836.76v35q0,5.37,2.61,8.19c1.75,1.88,4.27,2.82,7.58,2.82a15.1,15.1,0,0,0,9.63-3Z"/><path class="cls-4" d="M164.49,1648.58H175.7a16.29,16.29,0,0,1,7.49,1.67,12.32,12.32,0,0,1,5.07,4.7,14.26,14.26,0,0,1,0,13.87,12.3,12.3,0,0,1-5.07,4.69,16.29,16.29,0,0,1-7.49,1.67H164.49Zm11,23.3a12.22,12.22,0,0,0,5.68-1.26,8.92,8.92,0,0,0,3.78-3.51,10.93,10.93,0,0,0,0-10.45,9,9,0,0,0-3.78-3.52,12.35,12.35,0,0,0-5.68-1.25h-7.18v20Z"/><path class="cls-4" d="M198.58,1674.08a9.66,9.66,0,0,1-3.75-3.67,11.08,11.08,0,0,1,0-10.6,9.54,9.54,0,0,1,3.75-3.65,11.72,11.72,0,0,1,10.77,0,9.6,9.6,0,0,1,3.72,3.65,11.08,11.08,0,0,1,0,10.6,9.72,9.72,0,0,1-3.72,3.67,11.57,11.57,0,0,1-10.77,0Zm8.87-2.75a6.33,6.33,0,0,0,2.41-2.51,8.24,8.24,0,0,0,0-7.41,6.09,6.09,0,0,0-2.41-2.49,7.3,7.3,0,0,0-6.95,0,6.29,6.29,0,0,0-2.44,2.49,8.16,8.16,0,0,0,0,7.41,6.54,6.54,0,0,0,2.44,2.51,7.23,7.23,0,0,0,6.95,0Z"/><path class="cls-4" d="M219.48,1647h3.64v28.19h-3.64Z"/><path class="cls-4" d="M233.31,1674.08a9.66,9.66,0,0,1-3.75-3.67,11.15,11.15,0,0,1,0-10.6,9.54,9.54,0,0,1,3.75-3.65,11.72,11.72,0,0,1,10.77,0,9.53,9.53,0,0,1,3.72,3.65,11.08,11.08,0,0,1,0,10.6,9.65,9.65,0,0,1-3.72,3.67,11.57,11.57,0,0,1-10.77,0Zm8.87-2.75a6.33,6.33,0,0,0,2.41-2.51,8.24,8.24,0,0,0,0-7.41,6.09,6.09,0,0,0-2.41-2.49,7.3,7.3,0,0,0-7,0,6.29,6.29,0,0,0-2.44,2.49,8.16,8.16,0,0,0,0,7.41,6.54,6.54,0,0,0,2.44,2.51,7.23,7.23,0,0,0,7,0Z"/><path class="cls-4" d="M260.52,1655.76a10.29,10.29,0,0,1,4.52-.91v3.54a6.25,6.25,0,0,0-.84,0,6.12,6.12,0,0,0-4.65,1.77,7,7,0,0,0-1.69,5v10h-3.65V1655h3.49v3.38A6.27,6.27,0,0,1,260.52,1655.76Z"/><path class="cls-4" d="M281,1674.75a10.42,10.42,0,0,1-3.57-1.7l1.52-2.88a11.12,11.12,0,0,0,3.23,1.52,13.33,13.33,0,0,0,3.84.57c3.19,0,4.79-.92,4.79-2.74a1.76,1.76,0,0,0-.65-1.44,4,4,0,0,0-1.61-.78c-.65-.17-1.57-.35-2.76-.55a27.85,27.85,0,0,1-4-.88,6.14,6.14,0,0,1-2.64-1.67,4.69,4.69,0,0,1-1.1-3.31,5.15,5.15,0,0,1,2.28-4.38,10.16,10.16,0,0,1,6.12-1.66,16.76,16.76,0,0,1,4,.5,10.72,10.72,0,0,1,3.31,1.33l-1.56,2.88a10.47,10.47,0,0,0-5.81-1.59,6.72,6.72,0,0,0-3.54.76,2.29,2.29,0,0,0-1.21,2,1.94,1.94,0,0,0,.68,1.56,4.4,4.4,0,0,0,1.69.84c.67.17,1.62.38,2.83.6a30,30,0,0,1,3.94.9,5.8,5.8,0,0,1,2.56,1.61,4.51,4.51,0,0,1,1.07,3.19,5,5,0,0,1-2.34,4.35,11,11,0,0,1-6.37,1.62A17,17,0,0,1,281,1674.75Z"/><path class="cls-4" d="M299.1,1650.48a2.22,2.22,0,0,1-.7-1.67,2.3,2.3,0,0,1,.7-1.69,2.4,2.4,0,0,1,1.77-.7,2.49,2.49,0,0,1,1.77.66,2.19,2.19,0,0,1,.7,1.65,2.34,2.34,0,0,1-.7,1.73,2.59,2.59,0,0,1-3.54,0Zm-.05,4.56h3.64v20.14h-3.64Z"/><path class="cls-4" d="M321,1674a5.38,5.38,0,0,1-2,1,8.33,8.33,0,0,1-2.44.36,6.47,6.47,0,0,1-4.71-1.63,6.27,6.27,0,0,1-1.67-4.68V1658h-3.42v-3h3.42v-4.41h3.65V1655h5.77v3h-5.77V1669a3.53,3.53,0,0,0,.82,2.51,3,3,0,0,0,2.33.87,4.34,4.34,0,0,0,2.85-.95Z"/><path class="cls-4" d="M349.34,1656.9q2.22,2.05,2.22,6.12v12.16H348.1v-2.66a5.67,5.67,0,0,1-2.6,2.15,10,10,0,0,1-4,.74,8.37,8.37,0,0,1-5.41-1.63,5.61,5.61,0,0,1-.1-8.57c1.29-1.08,3.35-1.62,6.16-1.62h5.77v-.72a4.63,4.63,0,0,0-1.37-3.61,5.73,5.73,0,0,0-4-1.25,10.5,10.5,0,0,0-3.5.59,9,9,0,0,0-2.89,1.57l-1.52-2.73a10.89,10.89,0,0,1,3.73-1.92,15.32,15.32,0,0,1,4.6-.67A9.15,9.15,0,0,1,349.34,1656.9Zm-3.63,14.77a5.3,5.3,0,0,0,2.2-2.64v-2.82h-5.62q-4.64,0-4.64,3.12a2.83,2.83,0,0,0,1.18,2.39,5.36,5.36,0,0,0,3.27.88A6.78,6.78,0,0,0,345.71,1671.67Z"/><path class="cls-4" d="M389.54,1657.06c1.48,1.47,2.22,3.64,2.22,6.53v11.59h-3.64V1664a6.36,6.36,0,0,0-1.35-4.41,5,5,0,0,0-3.86-1.48,5.79,5.79,0,0,0-4.41,1.73,7,7,0,0,0-1.63,5v10.37h-3.65V1664a6.36,6.36,0,0,0-1.35-4.41,4.94,4.94,0,0,0-3.86-1.48,5.78,5.78,0,0,0-4.4,1.73,7,7,0,0,0-1.64,5v10.37h-3.65V1655h3.5v3a7.13,7.13,0,0,1,2.89-2.37,9.56,9.56,0,0,1,4.06-.82,8.91,8.91,0,0,1,4.18,1,6.63,6.63,0,0,1,2.82,2.78,7.66,7.66,0,0,1,3.17-2.74,10.3,10.3,0,0,1,4.58-1A8.17,8.17,0,0,1,389.54,1657.06Z"/><path class="cls-4" d="M416.73,1666.33H400.39a6.32,6.32,0,0,0,2.34,4.27,7.61,7.61,0,0,0,5,1.62,7.48,7.48,0,0,0,5.81-2.43l2,2.35a8.63,8.63,0,0,1-3.4,2.43,11.77,11.77,0,0,1-4.54.84,11.94,11.94,0,0,1-5.66-1.31,9.39,9.39,0,0,1-3.82-3.67,10.49,10.49,0,0,1-1.35-5.32,10.71,10.71,0,0,1,1.31-5.28,9.5,9.5,0,0,1,3.61-3.67,10.34,10.34,0,0,1,5.19-1.31,10.11,10.11,0,0,1,5.15,1.31,9.24,9.24,0,0,1,3.53,3.67,11.16,11.16,0,0,1,1.28,5.4A10.85,10.85,0,0,1,416.73,1666.33Zm-14.27-6.8a6.39,6.39,0,0,0-2.07,4.18h12.92a6.48,6.48,0,0,0-2.07-4.17,6.81,6.81,0,0,0-8.78,0Z"/><path class="cls-4" d="M433.18,1674a5.38,5.38,0,0,1-2,1,8.31,8.31,0,0,1-2.43.36,6.48,6.48,0,0,1-4.72-1.63,6.27,6.27,0,0,1-1.67-4.68V1658H419v-3h3.42v-4.41H426V1655h5.78v3H426V1669a3.53,3.53,0,0,0,.82,2.51,3,3,0,0,0,2.33.87,4.34,4.34,0,0,0,2.85-.95Z"/><path class="cls-4" d="M440.65,1671a2.54,2.54,0,0,1,.7,1.84,4.42,4.42,0,0,1-.13,1.1c-.09.36-.26.9-.51,1.63l-1.79,5.29h-2.39l1.4-5.67a2.37,2.37,0,0,1-1.16-.89,2.49,2.49,0,0,1-.43-1.46,2.52,2.52,0,0,1,.72-1.86,2.48,2.48,0,0,1,1.82-.73A2.33,2.33,0,0,1,440.65,1671Z"/><path class="cls-4" d="M460.11,1674.08a9.83,9.83,0,0,1-3.79-3.67,11,11,0,0,1,0-10.6,9.71,9.71,0,0,1,3.79-3.65,11.31,11.31,0,0,1,5.49-1.31,10.59,10.59,0,0,1,4.88,1.1,7.83,7.83,0,0,1,3.32,3.2l-2.77,1.78a6.16,6.16,0,0,0-2.36-2.16,6.69,6.69,0,0,0-3.11-.73,7.21,7.21,0,0,0-3.55.88,6.11,6.11,0,0,0-2.47,2.49,7.45,7.45,0,0,0-.9,3.7,7.59,7.59,0,0,0,.9,3.75,6.14,6.14,0,0,0,2.47,2.48,7.11,7.11,0,0,0,3.55.88,6.69,6.69,0,0,0,3.11-.72,6.19,6.19,0,0,0,2.36-2.17l2.77,1.75a8,8,0,0,1-3.32,3.21,10.36,10.36,0,0,1-4.88,1.12A11.1,11.1,0,0,1,460.11,1674.08Z"/><path class="cls-4" d="M481.44,1674.08a9.7,9.7,0,0,1-3.74-3.67,11.08,11.08,0,0,1,0-10.6,9.58,9.58,0,0,1,3.74-3.65,11.12,11.12,0,0,1,5.4-1.31,11,11,0,0,1,5.37,1.31,9.55,9.55,0,0,1,3.73,3.65,11.08,11.08,0,0,1,0,10.6,9.67,9.67,0,0,1-3.73,3.67,10.75,10.75,0,0,1-5.37,1.33A10.92,10.92,0,0,1,481.44,1674.08Zm8.88-2.75a6.4,6.4,0,0,0,2.41-2.51,8.32,8.32,0,0,0,0-7.41,6.15,6.15,0,0,0-2.41-2.49,7.32,7.32,0,0,0-7,0,6.26,6.26,0,0,0-2.43,2.49,8.16,8.16,0,0,0,0,7.41,6.52,6.52,0,0,0,2.43,2.51,7.25,7.25,0,0,0,7,0Z"/><path class="cls-4" d="M519.19,1657.08q2.26,2.22,2.27,6.51v11.59h-3.65V1664a6.18,6.18,0,0,0-1.41-4.41,5.29,5.29,0,0,0-4-1.48,6.29,6.29,0,0,0-4.67,1.73,6.76,6.76,0,0,0-1.71,5v10.37h-3.65V1655h3.5v3a7.08,7.08,0,0,1,3-2.39,10.38,10.38,0,0,1,4.28-.84A8.27,8.27,0,0,1,519.19,1657.08Z"/><path class="cls-4" d="M529.25,1674.75a10.48,10.48,0,0,1-3.58-1.7l1.52-2.88a11.12,11.12,0,0,0,3.23,1.52,13.33,13.33,0,0,0,3.84.57c3.19,0,4.79-.92,4.79-2.74a1.76,1.76,0,0,0-.65-1.44,4,4,0,0,0-1.61-.78c-.65-.17-1.57-.35-2.76-.55a27.85,27.85,0,0,1-4-.88,6.14,6.14,0,0,1-2.64-1.67,4.69,4.69,0,0,1-1.1-3.31,5.15,5.15,0,0,1,2.28-4.38,10.16,10.16,0,0,1,6.12-1.66,16.91,16.91,0,0,1,4,.5,10.76,10.76,0,0,1,3.3,1.33l-1.56,2.88a10.47,10.47,0,0,0-5.81-1.59,6.66,6.66,0,0,0-3.53.76,2.28,2.28,0,0,0-1.22,2,1.94,1.94,0,0,0,.68,1.56,4.4,4.4,0,0,0,1.69.84c.68.17,1.62.38,2.84.6a30.2,30.2,0,0,1,3.93.9,5.8,5.8,0,0,1,2.56,1.61,4.51,4.51,0,0,1,1.07,3.19,5,5,0,0,1-2.34,4.35,11,11,0,0,1-6.36,1.62A17,17,0,0,1,529.25,1674.75Z"/><path class="cls-4" d="M565.38,1666.33H549a6.32,6.32,0,0,0,2.34,4.27,7.61,7.61,0,0,0,5,1.62,7.46,7.46,0,0,0,5.81-2.43l2,2.35a8.77,8.77,0,0,1-3.4,2.43,11.82,11.82,0,0,1-4.55.84,12,12,0,0,1-5.66-1.31,9.45,9.45,0,0,1-3.82-3.67,10.49,10.49,0,0,1-1.35-5.32,10.61,10.61,0,0,1,1.32-5.28,9.37,9.37,0,0,1,3.61-3.67,10.3,10.3,0,0,1,5.18-1.31,10.11,10.11,0,0,1,5.15,1.31,9.26,9.26,0,0,1,3.54,3.67,11.27,11.27,0,0,1,1.27,5.4A10.85,10.85,0,0,1,565.38,1666.33Zm-14.27-6.8a6.48,6.48,0,0,0-2.07,4.18H562a6.48,6.48,0,0,0-2.07-4.17,6.81,6.81,0,0,0-8.78,0Z"/><path class="cls-4" d="M573.8,1674.08a9.74,9.74,0,0,1-3.78-3.67,10.94,10.94,0,0,1,0-10.6,9.62,9.62,0,0,1,3.78-3.65,11.36,11.36,0,0,1,5.49-1.31,10.59,10.59,0,0,1,4.88,1.1,7.91,7.91,0,0,1,3.33,3.2l-2.78,1.78a6.13,6.13,0,0,0-2.35-2.16,6.77,6.77,0,0,0-3.12-.73,7.24,7.24,0,0,0-3.55.88,6.17,6.17,0,0,0-2.47,2.49,7.45,7.45,0,0,0-.89,3.7,7.59,7.59,0,0,0,.89,3.75,6.21,6.21,0,0,0,2.47,2.48,7.14,7.14,0,0,0,3.55.88,6.76,6.76,0,0,0,3.12-.72,6.16,6.16,0,0,0,2.35-2.17l2.78,1.75a8,8,0,0,1-3.33,3.21,10.36,10.36,0,0,1-4.88,1.12A11.15,11.15,0,0,1,573.8,1674.08Z"/><path class="cls-4" d="M603.8,1674a5.35,5.35,0,0,1-2,1,8.22,8.22,0,0,1-2.43.36,6.47,6.47,0,0,1-4.71-1.63,6.27,6.27,0,0,1-1.67-4.68V1658h-3.42v-3H593v-4.41h3.65V1655h5.77v3h-5.77V1669a3.57,3.57,0,0,0,.81,2.51,3.07,3.07,0,0,0,2.34.87,4.36,4.36,0,0,0,2.85-.95Z"/><path class="cls-4" d="M625.65,1666.33H609.31a6.32,6.32,0,0,0,2.34,4.27,7.61,7.61,0,0,0,5,1.62,7.48,7.48,0,0,0,5.81-2.43l2,2.35a8.63,8.63,0,0,1-3.4,2.43,11.77,11.77,0,0,1-4.54.84,11.94,11.94,0,0,1-5.66-1.31,9.39,9.39,0,0,1-3.82-3.67,10.49,10.49,0,0,1-1.35-5.32,10.71,10.71,0,0,1,1.31-5.28,9.5,9.5,0,0,1,3.61-3.67,10.34,10.34,0,0,1,5.19-1.31,10.11,10.11,0,0,1,5.15,1.31,9.24,9.24,0,0,1,3.53,3.67,11.16,11.16,0,0,1,1.28,5.4A10.85,10.85,0,0,1,625.65,1666.33Zm-14.27-6.8a6.39,6.39,0,0,0-2.07,4.18h12.92a6.48,6.48,0,0,0-2.07-4.17,6.81,6.81,0,0,0-8.78,0Z"/><path class="cls-4" d="M642.1,1674a5.38,5.38,0,0,1-2,1,8.31,8.31,0,0,1-2.43.36,6.48,6.48,0,0,1-4.72-1.63,6.27,6.27,0,0,1-1.67-4.68V1658h-3.42v-3h3.42v-4.41H635V1655h5.78v3H635V1669a3.53,3.53,0,0,0,.82,2.51,3,3,0,0,0,2.33.87,4.34,4.34,0,0,0,2.85-.95Z"/><path class="cls-4" d="M665.28,1655v20.14h-3.45v-3a7.3,7.3,0,0,1-2.91,2.41,9.11,9.11,0,0,1-3.93.86,8.79,8.79,0,0,1-6.35-2.22q-2.32-2.22-2.32-6.56V1655H650v11.17a6.25,6.25,0,0,0,1.41,4.43,5.24,5.24,0,0,0,4,1.5,6,6,0,0,0,4.56-1.75,6.83,6.83,0,0,0,1.68-4.94V1655Z"/><path class="cls-4" d="M678.55,1655.76a10.29,10.29,0,0,1,4.52-.91v3.54a6.25,6.25,0,0,0-.84,0,6.1,6.1,0,0,0-4.65,1.77,7,7,0,0,0-1.69,5v10h-3.65V1655h3.49v3.38A6.27,6.27,0,0,1,678.55,1655.76Z"/><path class="cls-4" d="M711.78,1656.9Q714,1659,714,1663v12.16h-3.46v-2.66a5.77,5.77,0,0,1-2.6,2.15,10,10,0,0,1-4,.74,8.4,8.4,0,0,1-5.42-1.63,5.62,5.62,0,0,1-.09-8.57q1.94-1.62,6.15-1.62h5.78v-.72a4.67,4.67,0,0,0-1.37-3.61,5.74,5.74,0,0,0-4-1.25,10.44,10.44,0,0,0-3.49.59,9,9,0,0,0-2.89,1.57l-1.52-2.73a10.93,10.93,0,0,1,3.72-1.92,15.42,15.42,0,0,1,4.6-.67A9.17,9.17,0,0,1,711.78,1656.9Zm-3.63,14.77a5.35,5.35,0,0,0,2.2-2.64v-2.82h-5.62c-3.1,0-4.64,1-4.64,3.12a2.8,2.8,0,0,0,1.18,2.39,5.32,5.32,0,0,0,3.27.88A6.81,6.81,0,0,0,708.15,1671.67Z"/><path class="cls-4" d="M739.88,1647v28.19h-3.5V1672a7.94,7.94,0,0,1-3.08,2.55,9.57,9.57,0,0,1-4.1.87,10.64,10.64,0,0,1-5.25-1.29,9.31,9.31,0,0,1-3.63-3.63,11.66,11.66,0,0,1,0-10.74,9.47,9.47,0,0,1,3.63-3.61,10.64,10.64,0,0,1,5.25-1.29,9.59,9.59,0,0,1,4,.82,7.77,7.77,0,0,1,3,2.41V1647ZM733,1671.33a6.31,6.31,0,0,0,2.43-2.51,8.32,8.32,0,0,0,0-7.41,6.07,6.07,0,0,0-2.43-2.49,7.28,7.28,0,0,0-6.94,0,6.33,6.33,0,0,0-2.43,2.49,8.16,8.16,0,0,0,0,7.41,6.59,6.59,0,0,0,2.43,2.51,7.21,7.21,0,0,0,6.94,0Z"/><path class="cls-4" d="M746.85,1650.48a2.23,2.23,0,0,1-.71-1.67,2.3,2.3,0,0,1,.71-1.69,2.4,2.4,0,0,1,1.77-.7,2.48,2.48,0,0,1,1.76.66,2.2,2.2,0,0,1,.71,1.65,2.35,2.35,0,0,1-.71,1.73,2.4,2.4,0,0,1-1.76.71A2.43,2.43,0,0,1,746.85,1650.48Zm-.06,4.56h3.65v20.14h-3.65Z"/><path class="cls-4" d="M773.31,1656.14a9.33,9.33,0,0,1,3.63,3.61,11.66,11.66,0,0,1,0,10.74,9.19,9.19,0,0,1-3.63,3.63,10.57,10.57,0,0,1-5.24,1.29,9.29,9.29,0,0,1-4-.84,8.18,8.18,0,0,1-3.06-2.43v10.41h-3.65V1655h3.5v3.19a7.71,7.71,0,0,1,3.08-2.52,9.71,9.71,0,0,1,4.1-.86A10.57,10.57,0,0,1,773.31,1656.14Zm-2.07,15.19a6.54,6.54,0,0,0,2.44-2.51,8.16,8.16,0,0,0,0-7.41,6.29,6.29,0,0,0-2.44-2.49,6.91,6.91,0,0,0-3.47-.88,6.67,6.67,0,0,0-3.44.9,6.33,6.33,0,0,0-2.43,2.49,7.35,7.35,0,0,0-.9,3.68,7.59,7.59,0,0,0,.88,3.71,6.31,6.31,0,0,0,2.43,2.51,6.88,6.88,0,0,0,3.46.89A6.81,6.81,0,0,0,771.24,1671.33Z"/><path class="cls-4" d="M783.37,1650.48a2.23,2.23,0,0,1-.71-1.67,2.3,2.3,0,0,1,.71-1.69,2.36,2.36,0,0,1,1.76-.7,2.49,2.49,0,0,1,1.77.66,2.19,2.19,0,0,1,.7,1.65,2.34,2.34,0,0,1-.7,1.73,2.58,2.58,0,0,1-3.53,0Zm-.06,4.56H787v20.14h-3.65Z"/><path class="cls-4" d="M794.94,1674.75a10.48,10.48,0,0,1-3.58-1.7l1.52-2.88a11.12,11.12,0,0,0,3.23,1.52,13.33,13.33,0,0,0,3.84.57c3.19,0,4.79-.92,4.79-2.74a1.76,1.76,0,0,0-.65-1.44,3.91,3.91,0,0,0-1.61-.78c-.65-.17-1.56-.35-2.76-.55a27.85,27.85,0,0,1-4-.88,6.14,6.14,0,0,1-2.64-1.67,4.69,4.69,0,0,1-1.1-3.31,5.15,5.15,0,0,1,2.28-4.38,10.16,10.16,0,0,1,6.12-1.66,16.91,16.91,0,0,1,4,.5,10.76,10.76,0,0,1,3.3,1.33l-1.56,2.88a10.47,10.47,0,0,0-5.81-1.59,6.66,6.66,0,0,0-3.53.76,2.3,2.3,0,0,0-1.22,2,1.94,1.94,0,0,0,.68,1.56,4.37,4.37,0,0,0,1.7.84c.67.17,1.61.38,2.83.6a30.2,30.2,0,0,1,3.93.9,5.8,5.8,0,0,1,2.56,1.61,4.51,4.51,0,0,1,1.07,3.19,5,5,0,0,1-2.34,4.35,11,11,0,0,1-6.36,1.62A17,17,0,0,1,794.94,1674.75Z"/><path class="cls-4" d="M816.24,1674.08a9.83,9.83,0,0,1-3.79-3.67,11,11,0,0,1,0-10.6,9.71,9.71,0,0,1,3.79-3.65,11.31,11.31,0,0,1,5.49-1.31,10.59,10.59,0,0,1,4.88,1.1,7.83,7.83,0,0,1,3.32,3.2l-2.77,1.78a6.16,6.16,0,0,0-2.36-2.16,6.69,6.69,0,0,0-3.11-.73,7.28,7.28,0,0,0-3.56.88,6.14,6.14,0,0,0-2.46,2.49,7.45,7.45,0,0,0-.9,3.7,7.59,7.59,0,0,0,.9,3.75,6.18,6.18,0,0,0,2.46,2.48,7.17,7.17,0,0,0,3.56.88,6.69,6.69,0,0,0,3.11-.72,6.19,6.19,0,0,0,2.36-2.17l2.77,1.75a8,8,0,0,1-3.32,3.21,10.36,10.36,0,0,1-4.88,1.12A11.1,11.1,0,0,1,816.24,1674.08Z"/><path class="cls-4" d="M834.7,1650.48a2.22,2.22,0,0,1-.7-1.67,2.3,2.3,0,0,1,.7-1.69,2.4,2.4,0,0,1,1.77-.7,2.49,2.49,0,0,1,1.77.66,2.19,2.19,0,0,1,.7,1.65,2.34,2.34,0,0,1-.7,1.73,2.59,2.59,0,0,1-3.54,0Zm-.05,4.56h3.65v20.14h-3.65Z"/><path class="cls-4" d="M862.1,1657.08q2.26,2.22,2.26,6.51v11.59h-3.65V1664a6.18,6.18,0,0,0-1.4-4.41,5.29,5.29,0,0,0-4-1.48,6.27,6.27,0,0,0-4.67,1.73,6.76,6.76,0,0,0-1.71,5v10.37h-3.65V1655h3.49v3a7.11,7.11,0,0,1,3-2.39,10.36,10.36,0,0,1,4.27-.84A8.3,8.3,0,0,1,862.1,1657.08Z"/><path class="cls-4" d="M890.51,1655v17.41q0,5.28-2.63,7.81t-7.82,2.52a18.73,18.73,0,0,1-5.44-.78,10.86,10.86,0,0,1-4.18-2.22l1.75-2.81a10.4,10.4,0,0,0,3.48,1.92,13.14,13.14,0,0,0,4.27.7q3.54,0,5.23-1.67a6.91,6.91,0,0,0,1.69-5.09v-1.6a8.08,8.08,0,0,1-3.17,2.34,10.6,10.6,0,0,1-4.09.78,11,11,0,0,1-5.22-1.24,9.13,9.13,0,0,1-3.67-3.46,10.33,10.33,0,0,1,0-10.14,9,9,0,0,1,3.67-3.44,11.1,11.1,0,0,1,5.22-1.22,10.66,10.66,0,0,1,4.24.84,7.94,7.94,0,0,1,3.21,2.47V1655Zm-6.94,15.28A6.19,6.19,0,0,0,886,1668a6.46,6.46,0,0,0,.89-3.4,6.16,6.16,0,0,0-1.93-4.73,7.81,7.81,0,0,0-10,0,6.17,6.17,0,0,0-1.94,4.73,6.47,6.47,0,0,0,.9,3.4,6.19,6.19,0,0,0,2.47,2.34,7.6,7.6,0,0,0,3.59.83A7.53,7.53,0,0,0,883.57,1670.32Z"/><path class="cls-4" d="M182.08,1721.33H165.74a6.32,6.32,0,0,0,2.34,4.27,7.61,7.61,0,0,0,5,1.62,7.46,7.46,0,0,0,5.81-2.43l2,2.35a8.7,8.7,0,0,1-3.4,2.43,11.81,11.81,0,0,1-4.54.84,12,12,0,0,1-5.67-1.31,9.36,9.36,0,0,1-3.81-3.67,10.49,10.49,0,0,1-1.35-5.32,10.6,10.6,0,0,1,1.31-5.28,9.37,9.37,0,0,1,3.61-3.67,10.3,10.3,0,0,1,5.18-1.31,10.09,10.09,0,0,1,5.15,1.31,9.26,9.26,0,0,1,3.54,3.67,11.16,11.16,0,0,1,1.27,5.4A10.85,10.85,0,0,1,182.08,1721.33Zm-14.26-6.8a6.44,6.44,0,0,0-2.08,4.18h12.92a6.48,6.48,0,0,0-2.07-4.17,6.79,6.79,0,0,0-8.77,0Z"/><path class="cls-4" d="M187.21,1702h3.65v28.19h-3.65Z"/><path class="cls-4" d="M197.87,1705.48a2.22,2.22,0,0,1-.7-1.67,2.3,2.3,0,0,1,.7-1.69,2.4,2.4,0,0,1,1.77-.7,2.49,2.49,0,0,1,1.77.66,2.19,2.19,0,0,1,.7,1.65,2.34,2.34,0,0,1-.7,1.73,2.59,2.59,0,0,1-3.54,0Zm-.05,4.56h3.64v20.14h-3.64Z"/><path class="cls-4" d="M219.74,1729a5.38,5.38,0,0,1-2,1,8.33,8.33,0,0,1-2.44.36,6.47,6.47,0,0,1-4.71-1.63,6.27,6.27,0,0,1-1.67-4.68V1713h-3.42v-3H209v-4.41h3.65V1710h5.77v3H212.6V1724a3.57,3.57,0,0,0,.81,2.51,3.07,3.07,0,0,0,2.34.87,4.34,4.34,0,0,0,2.85-.95Z"/><path class="cls-4" d="M227.21,1726a2.54,2.54,0,0,1,.7,1.84,4.42,4.42,0,0,1-.13,1.1c-.09.36-.26.9-.52,1.63l-1.78,5.29h-2.4l1.41-5.67a2.33,2.33,0,0,1-1.16-.89,2.49,2.49,0,0,1-.43-1.46,2.52,2.52,0,0,1,.72-1.86,2.48,2.48,0,0,1,1.82-.73A2.33,2.33,0,0,1,227.21,1726Z"/><path class="cls-4" d="M244.4,1729.75a10.42,10.42,0,0,1-3.57-1.7l1.52-2.88a11,11,0,0,0,3.23,1.52,13.33,13.33,0,0,0,3.84.57c3.19,0,4.79-.92,4.79-2.74a1.76,1.76,0,0,0-.65-1.44,4,4,0,0,0-1.62-.78c-.64-.17-1.56-.35-2.75-.55a27.85,27.85,0,0,1-4-.88,6,6,0,0,1-2.64-1.67,4.64,4.64,0,0,1-1.1-3.31,5.15,5.15,0,0,1,2.28-4.38,10.13,10.13,0,0,1,6.11-1.66,16.78,16.78,0,0,1,4,.5,10.82,10.82,0,0,1,3.31,1.33l-1.56,2.88a10.52,10.52,0,0,0-5.81-1.59,6.7,6.7,0,0,0-3.54.76,2.29,2.29,0,0,0-1.21,2,1.91,1.91,0,0,0,.68,1.56,4.4,4.4,0,0,0,1.69.84c.67.17,1.62.38,2.83.6a30.81,30.81,0,0,1,3.94.9,5.8,5.8,0,0,1,2.56,1.61,4.5,4.5,0,0,1,1.06,3.19,5,5,0,0,1-2.33,4.35,11,11,0,0,1-6.37,1.62A17,17,0,0,1,244.4,1729.75Z"/><path class="cls-4" d="M280.54,1721.33H264.2a6.32,6.32,0,0,0,2.34,4.27,7.61,7.61,0,0,0,5,1.62,7.48,7.48,0,0,0,5.81-2.43l2,2.35a8.63,8.63,0,0,1-3.4,2.43,11.77,11.77,0,0,1-4.54.84,11.94,11.94,0,0,1-5.66-1.31,9.39,9.39,0,0,1-3.82-3.67,10.49,10.49,0,0,1-1.35-5.32,10.71,10.71,0,0,1,1.31-5.28,9.5,9.5,0,0,1,3.61-3.67,10.32,10.32,0,0,1,5.19-1.31,10.14,10.14,0,0,1,5.15,1.31,9.24,9.24,0,0,1,3.53,3.67,11.16,11.16,0,0,1,1.28,5.4A10.85,10.85,0,0,1,280.54,1721.33Zm-14.27-6.8a6.39,6.39,0,0,0-2.07,4.18h12.92a6.48,6.48,0,0,0-2.07-4.17,6.81,6.81,0,0,0-8.78,0Z"/><path class="cls-4" d="M304.67,1702v28.19h-3.5V1727a7.91,7.91,0,0,1-3.07,2.55,9.61,9.61,0,0,1-4.11.87,10.57,10.57,0,0,1-5.24-1.29,9.19,9.19,0,0,1-3.63-3.63,11.66,11.66,0,0,1,0-10.74,9.33,9.33,0,0,1,3.63-3.61,10.57,10.57,0,0,1,5.24-1.29,9.53,9.53,0,0,1,4,.82,7.7,7.7,0,0,1,3,2.41V1702Zm-6.92,24.34a6.4,6.4,0,0,0,2.44-2.51,8.32,8.32,0,0,0,0-7.41,6.16,6.16,0,0,0-2.44-2.49,7.26,7.26,0,0,0-6.93,0,6.2,6.2,0,0,0-2.43,2.49,8.08,8.08,0,0,0,0,7.41,6.45,6.45,0,0,0,2.43,2.51,7.19,7.19,0,0,0,6.93,0Z"/><path class="cls-4" d="M339.93,1721.33H323.59a6.32,6.32,0,0,0,2.34,4.27,7.61,7.61,0,0,0,5,1.62,7.48,7.48,0,0,0,5.81-2.43l2,2.35a8.77,8.77,0,0,1-3.4,2.43,11.82,11.82,0,0,1-4.55.84,12,12,0,0,1-5.66-1.31,9.45,9.45,0,0,1-3.82-3.67,10.49,10.49,0,0,1-1.35-5.32,10.61,10.61,0,0,1,1.32-5.28,9.37,9.37,0,0,1,3.61-3.67,10.3,10.3,0,0,1,5.18-1.31,10.11,10.11,0,0,1,5.15,1.31,9.26,9.26,0,0,1,3.54,3.67,11.27,11.27,0,0,1,1.27,5.4A10.85,10.85,0,0,1,339.93,1721.33Zm-14.27-6.8a6.43,6.43,0,0,0-2.07,4.18h12.92a6.48,6.48,0,0,0-2.07-4.17,6.81,6.81,0,0,0-8.78,0Z"/><path class="cls-4" d="M345.12,1705.48a2.22,2.22,0,0,1-.7-1.67,2.3,2.3,0,0,1,.7-1.69,2.4,2.4,0,0,1,1.77-.7,2.46,2.46,0,0,1,1.76.66,2.2,2.2,0,0,1,.71,1.65,2.35,2.35,0,0,1-.71,1.73,2.38,2.38,0,0,1-1.76.71A2.43,2.43,0,0,1,345.12,1705.48Zm-.06,4.56h3.65v20.14h-3.65Z"/><path class="cls-4" d="M374.44,1710v20.14H371v-3a7.3,7.3,0,0,1-2.91,2.41,9,9,0,0,1-3.93.86,8.8,8.8,0,0,1-6.35-2.22c-1.54-1.48-2.32-3.67-2.32-6.56V1710h3.65v11.17a6.25,6.25,0,0,0,1.41,4.43,5.24,5.24,0,0,0,4,1.5,6,6,0,0,0,4.56-1.75,6.87,6.87,0,0,0,1.67-4.94V1710Z"/><path class="cls-4" d="M382.42,1729.75a10.48,10.48,0,0,1-3.58-1.7l1.52-2.88a11.12,11.12,0,0,0,3.23,1.52,13.33,13.33,0,0,0,3.84.57c3.19,0,4.79-.92,4.79-2.74a1.76,1.76,0,0,0-.65-1.44,4,4,0,0,0-1.61-.78c-.65-.17-1.57-.35-2.76-.55a27.85,27.85,0,0,1-4-.88,6.14,6.14,0,0,1-2.64-1.67,4.69,4.69,0,0,1-1.1-3.31,5.15,5.15,0,0,1,2.28-4.38,10.16,10.16,0,0,1,6.12-1.66,16.91,16.91,0,0,1,4,.5,10.76,10.76,0,0,1,3.3,1.33l-1.56,2.88a10.47,10.47,0,0,0-5.81-1.59,6.66,6.66,0,0,0-3.53.76,2.28,2.28,0,0,0-1.22,2,1.94,1.94,0,0,0,.68,1.56,4.4,4.4,0,0,0,1.69.84c.68.17,1.62.38,2.84.6a30.2,30.2,0,0,1,3.93.9,5.8,5.8,0,0,1,2.56,1.61,4.51,4.51,0,0,1,1.07,3.19,5,5,0,0,1-2.34,4.35,11,11,0,0,1-6.36,1.62A17,17,0,0,1,382.42,1729.75Z"/><path class="cls-4" d="M431.64,1712.06c1.49,1.47,2.23,3.64,2.23,6.53v11.59h-3.65V1719a6.36,6.36,0,0,0-1.35-4.41,4.94,4.94,0,0,0-3.86-1.48,5.75,5.75,0,0,0-4.4,1.73,7,7,0,0,0-1.64,5v10.37h-3.65V1719a6.36,6.36,0,0,0-1.35-4.41,4.93,4.93,0,0,0-3.85-1.48,5.79,5.79,0,0,0-4.41,1.73,7,7,0,0,0-1.63,5v10.37h-3.65V1710h3.49v3a7.13,7.13,0,0,1,2.89-2.37,9.61,9.61,0,0,1,4.07-.82,9,9,0,0,1,4.18,1,6.67,6.67,0,0,1,2.81,2.78,7.73,7.73,0,0,1,3.17-2.74,10.33,10.33,0,0,1,4.58-1A8.17,8.17,0,0,1,431.64,1712.06Z"/><path class="cls-4" d="M443.94,1729.08a9.66,9.66,0,0,1-3.75-3.67,11.08,11.08,0,0,1,0-10.6,9.54,9.54,0,0,1,3.75-3.65,11.72,11.72,0,0,1,10.77,0,9.6,9.6,0,0,1,3.72,3.65,11.08,11.08,0,0,1,0,10.6,9.72,9.72,0,0,1-3.72,3.67,11.57,11.57,0,0,1-10.77,0Zm8.87-2.75a6.33,6.33,0,0,0,2.41-2.51,8.24,8.24,0,0,0,0-7.41,6.09,6.09,0,0,0-2.41-2.49,7.3,7.3,0,0,0-6.95,0,6.29,6.29,0,0,0-2.44,2.49,8.16,8.16,0,0,0,0,7.41,6.54,6.54,0,0,0,2.44,2.51,7.23,7.23,0,0,0,6.95,0Z"/><path class="cls-4" d="M483.84,1702v28.19h-3.5V1727a7.94,7.94,0,0,1-3.08,2.55,9.57,9.57,0,0,1-4.1.87,10.64,10.64,0,0,1-5.25-1.29,9.22,9.22,0,0,1-3.62-3.63,11.58,11.58,0,0,1,0-10.74,9.37,9.37,0,0,1,3.62-3.61,10.64,10.64,0,0,1,5.25-1.29,9.59,9.59,0,0,1,4,.82,7.77,7.77,0,0,1,3,2.41V1702Zm-6.92,24.34a6.31,6.31,0,0,0,2.43-2.51,8.24,8.24,0,0,0,0-7.41,6.07,6.07,0,0,0-2.43-2.49,7,7,0,0,0-3.46-.88,6.91,6.91,0,0,0-3.47.88,6.29,6.29,0,0,0-2.44,2.49,8.16,8.16,0,0,0,0,7.41,6.54,6.54,0,0,0,2.44,2.51,6.81,6.81,0,0,0,3.47.89A6.88,6.88,0,0,0,476.92,1726.33Z"/><path class="cls-4" d="M512.3,1729a5.35,5.35,0,0,1-2,1,8.22,8.22,0,0,1-2.43.36,6.44,6.44,0,0,1-4.71-1.63,6.23,6.23,0,0,1-1.67-4.68V1713h-3.42v-3h3.42v-4.41h3.64V1710h5.78v3h-5.78V1724a3.58,3.58,0,0,0,.82,2.51,3.06,3.06,0,0,0,2.34.87,4.38,4.38,0,0,0,2.85-.95Z"/><path class="cls-4" d="M534.15,1721.33H517.81a6.31,6.31,0,0,0,2.33,4.27,7.63,7.63,0,0,0,5,1.62,7.48,7.48,0,0,0,5.82-2.43l2,2.35a8.7,8.7,0,0,1-3.4,2.43,12.8,12.8,0,0,1-10.2-.47,9.39,9.39,0,0,1-3.82-3.67,10.49,10.49,0,0,1-1.35-5.32,10.71,10.71,0,0,1,1.31-5.28,9.43,9.43,0,0,1,3.61-3.67,10.32,10.32,0,0,1,5.19-1.31,10.14,10.14,0,0,1,5.15,1.31,9.31,9.31,0,0,1,3.53,3.67,11.16,11.16,0,0,1,1.27,5.4A10.37,10.37,0,0,1,534.15,1721.33Zm-14.27-6.8a6.39,6.39,0,0,0-2.07,4.18h12.92a6.57,6.57,0,0,0-2.07-4.17,6.81,6.81,0,0,0-8.78,0Z"/><path class="cls-4" d="M570.49,1712.06c1.49,1.47,2.23,3.64,2.23,6.53v11.59h-3.65V1719a6.36,6.36,0,0,0-1.35-4.41,5,5,0,0,0-3.86-1.48,5.79,5.79,0,0,0-4.41,1.73,7,7,0,0,0-1.63,5v10.37h-3.65V1719a6.36,6.36,0,0,0-1.35-4.41,4.93,4.93,0,0,0-3.85-1.48,5.79,5.79,0,0,0-4.41,1.73,7,7,0,0,0-1.64,5v10.37h-3.64V1710h3.49v3a7.13,7.13,0,0,1,2.89-2.37,9.61,9.61,0,0,1,4.07-.82,9,9,0,0,1,4.18,1,6.67,6.67,0,0,1,2.81,2.78,7.73,7.73,0,0,1,3.17-2.74,10.33,10.33,0,0,1,4.58-1A8.17,8.17,0,0,1,570.49,1712.06Z"/><path class="cls-4" d="M595.36,1711.14a9.33,9.33,0,0,1,3.63,3.61,11.66,11.66,0,0,1,0,10.74,9.19,9.19,0,0,1-3.63,3.63,10.57,10.57,0,0,1-5.24,1.29,9.29,9.29,0,0,1-4-.84,8.18,8.18,0,0,1-3.06-2.43v10.41h-3.65V1710h3.5v3.19a7.71,7.71,0,0,1,3.08-2.52,9.71,9.71,0,0,1,4.1-.86A10.57,10.57,0,0,1,595.36,1711.14Zm-2.07,15.19a6.54,6.54,0,0,0,2.44-2.51,8.16,8.16,0,0,0,0-7.41,6.29,6.29,0,0,0-2.44-2.49,6.91,6.91,0,0,0-3.47-.88,6.67,6.67,0,0,0-3.44.9,6.33,6.33,0,0,0-2.43,2.49,7.35,7.35,0,0,0-.9,3.68,7.59,7.59,0,0,0,.88,3.71,6.31,6.31,0,0,0,2.43,2.51,6.88,6.88,0,0,0,3.46.89A6.81,6.81,0,0,0,593.29,1726.33Z"/><path class="cls-4" d="M608.59,1729.08a9.56,9.56,0,0,1-3.74-3.67,11.08,11.08,0,0,1,0-10.6,9.45,9.45,0,0,1,3.74-3.65,11.72,11.72,0,0,1,10.77,0,9.62,9.62,0,0,1,3.73,3.65,11.15,11.15,0,0,1,0,10.6,9.74,9.74,0,0,1-3.73,3.67,11.57,11.57,0,0,1-10.77,0Zm8.87-2.75a6.33,6.33,0,0,0,2.41-2.51,8.24,8.24,0,0,0,0-7.41,6.09,6.09,0,0,0-2.41-2.49,7.3,7.3,0,0,0-7,0,6.2,6.2,0,0,0-2.43,2.49,8.08,8.08,0,0,0,0,7.41,6.45,6.45,0,0,0,2.43,2.51,7.23,7.23,0,0,0,7,0Z"/><path class="cls-4" d="M635.8,1710.76a10.32,10.32,0,0,1,4.52-.91v3.54a7.2,7.2,0,0,0-5.49,1.73,7,7,0,0,0-1.69,5v10h-3.65V1710H633v3.38A6.27,6.27,0,0,1,635.8,1710.76Z"/><path class="cls-4" d="M655.35,1705.48a2.23,2.23,0,0,1-.71-1.67,2.3,2.3,0,0,1,.71-1.69,2.36,2.36,0,0,1,1.76-.7,2.49,2.49,0,0,1,1.77.66,2.19,2.19,0,0,1,.7,1.65,2.34,2.34,0,0,1-.7,1.73,2.58,2.58,0,0,1-3.53,0Zm-.06,4.56h3.65v20.14h-3.65Z"/><path class="cls-4" d="M682.74,1712.08q2.26,2.22,2.26,6.51v11.59h-3.64V1719a6.18,6.18,0,0,0-1.41-4.41,5.29,5.29,0,0,0-4-1.48,6.29,6.29,0,0,0-4.67,1.73,6.76,6.76,0,0,0-1.71,5v10.37h-3.65V1710h3.5v3a7.08,7.08,0,0,1,3-2.39,10.36,10.36,0,0,1,4.27-.84A8.28,8.28,0,0,1,682.74,1712.08Z"/><path class="cls-4" d="M695.17,1729.08a9.74,9.74,0,0,1-3.78-3.67,10.94,10.94,0,0,1,0-10.6,9.62,9.62,0,0,1,3.78-3.65,11.36,11.36,0,0,1,5.49-1.31,10.59,10.59,0,0,1,4.88,1.1,7.91,7.91,0,0,1,3.33,3.2l-2.78,1.78a6.13,6.13,0,0,0-2.35-2.16,6.77,6.77,0,0,0-3.12-.73,7.24,7.24,0,0,0-3.55.88,6.17,6.17,0,0,0-2.47,2.49,7.45,7.45,0,0,0-.89,3.7,7.59,7.59,0,0,0,.89,3.75,6.21,6.21,0,0,0,2.47,2.48,7.14,7.14,0,0,0,3.55.88,6.76,6.76,0,0,0,3.12-.72,6.16,6.16,0,0,0,2.35-2.17l2.78,1.75a8,8,0,0,1-3.33,3.21,10.36,10.36,0,0,1-4.88,1.12A11.15,11.15,0,0,1,695.17,1729.08Z"/><path class="cls-4" d="M713.64,1705.48a2.23,2.23,0,0,1-.71-1.67,2.3,2.3,0,0,1,.71-1.69,2.4,2.4,0,0,1,1.77-.7,2.48,2.48,0,0,1,1.76.66,2.2,2.2,0,0,1,.71,1.65,2.35,2.35,0,0,1-.71,1.73,2.4,2.4,0,0,1-1.76.71A2.43,2.43,0,0,1,713.64,1705.48Zm-.06,4.56h3.65v20.14h-3.65Z"/><path class="cls-4" d="M743.18,1702v28.19h-3.49V1727a7.94,7.94,0,0,1-3.08,2.55,9.58,9.58,0,0,1-4.11.87,10.6,10.6,0,0,1-5.24-1.29,9.25,9.25,0,0,1-3.63-3.63,11.66,11.66,0,0,1,0-10.74,9.4,9.4,0,0,1,3.63-3.61,10.6,10.6,0,0,1,5.24-1.29,9.53,9.53,0,0,1,4,.82,7.7,7.7,0,0,1,3,2.41V1702Zm-6.91,24.34a6.38,6.38,0,0,0,2.43-2.51,8.32,8.32,0,0,0,0-7.41,6.14,6.14,0,0,0-2.43-2.49,7.28,7.28,0,0,0-6.94,0,6.26,6.26,0,0,0-2.43,2.49,8.16,8.16,0,0,0,0,7.41,6.52,6.52,0,0,0,2.43,2.51,7.21,7.21,0,0,0,6.94,0Z"/><path class="cls-4" d="M750.16,1705.48a2.23,2.23,0,0,1-.71-1.67,2.3,2.3,0,0,1,.71-1.69,2.36,2.36,0,0,1,1.76-.7,2.49,2.49,0,0,1,1.77.66,2.19,2.19,0,0,1,.7,1.65,2.34,2.34,0,0,1-.7,1.73,2.58,2.58,0,0,1-3.53,0Zm-.06,4.56h3.65v20.14H750.1Z"/><path class="cls-4" d="M779.7,1702v28.19h-3.5V1727a7.91,7.91,0,0,1-3.07,2.55,9.61,9.61,0,0,1-4.11.87,10.57,10.57,0,0,1-5.24-1.29,9.19,9.19,0,0,1-3.63-3.63,11.66,11.66,0,0,1,0-10.74,9.33,9.33,0,0,1,3.63-3.61,10.57,10.57,0,0,1,5.24-1.29,9.53,9.53,0,0,1,4,.82,7.7,7.7,0,0,1,3,2.41V1702Zm-6.92,24.34a6.4,6.4,0,0,0,2.44-2.51,8.32,8.32,0,0,0,0-7.41,6.16,6.16,0,0,0-2.44-2.49,7.26,7.26,0,0,0-6.93,0,6.2,6.2,0,0,0-2.43,2.49,8.08,8.08,0,0,0,0,7.41,6.45,6.45,0,0,0,2.43,2.51,7.19,7.19,0,0,0,6.93,0Z"/><path class="cls-4" d="M805.39,1710v20.14h-3.46v-3a7.17,7.17,0,0,1-2.91,2.41,9,9,0,0,1-3.93.86,8.8,8.8,0,0,1-6.35-2.22q-2.31-2.22-2.31-6.56V1710h3.64v11.17a6.25,6.25,0,0,0,1.41,4.43,5.26,5.26,0,0,0,4,1.5,6,6,0,0,0,4.56-1.75,6.87,6.87,0,0,0,1.67-4.94V1710Z"/><path class="cls-4" d="M829.19,1712.08q2.26,2.22,2.27,6.51v11.59h-3.65V1719a6.18,6.18,0,0,0-1.41-4.41,5.29,5.29,0,0,0-4-1.48,6.29,6.29,0,0,0-4.67,1.73,6.76,6.76,0,0,0-1.71,5v10.37h-3.65V1710h3.5v3a7.08,7.08,0,0,1,3-2.39,10.41,10.41,0,0,1,4.28-.84A8.27,8.27,0,0,1,829.19,1712.08Z"/><path class="cls-4" d="M849.54,1729a5.38,5.38,0,0,1-2,1,8.31,8.31,0,0,1-2.43.36,6.48,6.48,0,0,1-4.72-1.63,6.27,6.27,0,0,1-1.67-4.68V1713h-3.42v-3h3.42v-4.41h3.65V1710h5.78v3H842.4V1724a3.53,3.53,0,0,0,.82,2.51,3,3,0,0,0,2.33.87,4.34,4.34,0,0,0,2.85-.95Z"/><path class="cls-4" d="M883,1710v20.14h-3.46v-3a7.3,7.3,0,0,1-2.91,2.41,9,9,0,0,1-3.93.86,8.8,8.8,0,0,1-6.35-2.22Q864,1726,864,1721.63V1710h3.65v11.17a6.25,6.25,0,0,0,1.41,4.43,5.24,5.24,0,0,0,4,1.5,6,6,0,0,0,4.57-1.75,6.87,6.87,0,0,0,1.67-4.94V1710Z"/><path class="cls-4" d="M901.22,1729a5.38,5.38,0,0,1-2,1,8.33,8.33,0,0,1-2.44.36,6.47,6.47,0,0,1-4.71-1.63,6.27,6.27,0,0,1-1.67-4.68V1713H887v-3h3.42v-4.41h3.65V1710h5.77v3h-5.77V1724a3.53,3.53,0,0,0,.82,2.51,3,3,0,0,0,2.33.87,4.34,4.34,0,0,0,2.85-.95Z"/><path class="cls-4" d="M164,1757h3.65v28.19H164Z"/><path class="cls-4" d="M188.3,1766.9q2.22,2.05,2.22,6.12v12.16h-3.46v-2.66a5.72,5.72,0,0,1-2.6,2.15,10,10,0,0,1-4,.74,8.35,8.35,0,0,1-5.41-1.63,5.61,5.61,0,0,1-.1-8.57q1.94-1.62,6.16-1.62h5.77v-.72a4.63,4.63,0,0,0-1.37-3.61,5.73,5.73,0,0,0-4-1.25,10.5,10.5,0,0,0-3.5.59,9,9,0,0,0-2.89,1.57l-1.52-2.73a10.89,10.89,0,0,1,3.73-1.92,15.3,15.3,0,0,1,4.59-.67A9.17,9.17,0,0,1,188.3,1766.9Zm-3.63,14.77a5.3,5.3,0,0,0,2.2-2.64v-2.82h-5.62q-4.63,0-4.64,3.12a2.8,2.8,0,0,0,1.18,2.39,5.34,5.34,0,0,0,3.27.88A6.81,6.81,0,0,0,184.67,1781.67Z"/><path class="cls-4" d="M213.21,1766.14a9.37,9.37,0,0,1,3.62,3.61,11.58,11.58,0,0,1,0,10.74,9.22,9.22,0,0,1-3.62,3.63,10.64,10.64,0,0,1-5.25,1.29,9.57,9.57,0,0,1-4.1-.87,7.94,7.94,0,0,1-3.08-2.55v3.19h-3.5V1757h3.65v11.09a7.77,7.77,0,0,1,3-2.41,9.59,9.59,0,0,1,4-.82A10.64,10.64,0,0,1,213.21,1766.14Zm-2.08,15.19a6.54,6.54,0,0,0,2.44-2.51,8.16,8.16,0,0,0,0-7.41,6.29,6.29,0,0,0-2.44-2.49,6.91,6.91,0,0,0-3.47-.88,7,7,0,0,0-3.46.88,6.07,6.07,0,0,0-2.43,2.49,8.24,8.24,0,0,0,0,7.41,6.31,6.31,0,0,0,2.43,2.51,6.88,6.88,0,0,0,3.46.89A6.81,6.81,0,0,0,211.13,1781.33Z"/><path class="cls-4" d="M226.43,1784.08a9.56,9.56,0,0,1-3.74-3.67,11.08,11.08,0,0,1,0-10.6,9.45,9.45,0,0,1,3.74-3.65,11.09,11.09,0,0,1,5.4-1.31,11,11,0,0,1,5.37,1.31,9.55,9.55,0,0,1,3.73,3.65,11.08,11.08,0,0,1,0,10.6,9.67,9.67,0,0,1-3.73,3.67,10.75,10.75,0,0,1-5.37,1.33A10.89,10.89,0,0,1,226.43,1784.08Zm8.87-2.75a6.42,6.42,0,0,0,2.42-2.51,8.32,8.32,0,0,0,0-7.41,6.18,6.18,0,0,0-2.42-2.49,7.3,7.3,0,0,0-7,0,6.2,6.2,0,0,0-2.43,2.49,8.08,8.08,0,0,0,0,7.41,6.45,6.45,0,0,0,2.43,2.51,7.23,7.23,0,0,0,7,0Z"/><path class="cls-4" d="M253.64,1765.76a10.32,10.32,0,0,1,4.52-.91v3.54a7.2,7.2,0,0,0-5.49,1.73,7,7,0,0,0-1.69,5v10h-3.65V1765h3.5v3.38A6.25,6.25,0,0,1,253.64,1765.76Z"/><path class="cls-4" d="M280.58,1776.33H264.24a6.32,6.32,0,0,0,2.34,4.27,7.61,7.61,0,0,0,5,1.62,7.48,7.48,0,0,0,5.81-2.43l2,2.35a8.63,8.63,0,0,1-3.4,2.43,11.77,11.77,0,0,1-4.54.84,11.94,11.94,0,0,1-5.66-1.31,9.39,9.39,0,0,1-3.82-3.67,10.49,10.49,0,0,1-1.35-5.32,10.71,10.71,0,0,1,1.31-5.28,9.5,9.5,0,0,1,3.61-3.67,10.32,10.32,0,0,1,5.19-1.31,10.14,10.14,0,0,1,5.15,1.31,9.31,9.31,0,0,1,3.53,3.67,11.16,11.16,0,0,1,1.28,5.4A10.85,10.85,0,0,1,280.58,1776.33Zm-14.27-6.8a6.39,6.39,0,0,0-2.07,4.18h12.92a6.48,6.48,0,0,0-2.07-4.17,6.81,6.81,0,0,0-8.78,0Z"/><path class="cls-4" d="M314.06,1776.33H297.72a6.27,6.27,0,0,0,2.33,4.27,7.63,7.63,0,0,0,5,1.62,7.48,7.48,0,0,0,5.82-2.43l2,2.35a8.7,8.7,0,0,1-3.4,2.43,12.8,12.8,0,0,1-10.2-.47,9.39,9.39,0,0,1-3.82-3.67,10.49,10.49,0,0,1-1.35-5.32,10.71,10.71,0,0,1,1.31-5.28,9.43,9.43,0,0,1,3.61-3.67,10.32,10.32,0,0,1,5.19-1.31,10.14,10.14,0,0,1,5.15,1.31,9.31,9.31,0,0,1,3.53,3.67,11.16,11.16,0,0,1,1.27,5.4A10.37,10.37,0,0,1,314.06,1776.33Zm-14.27-6.8a6.39,6.39,0,0,0-2.07,4.18h12.92a6.57,6.57,0,0,0-2.07-4.17,6.81,6.81,0,0,0-8.78,0Z"/><path class="cls-4" d="M330.51,1784a5.35,5.35,0,0,1-2,1,8.22,8.22,0,0,1-2.43.36,6.45,6.45,0,0,1-4.71-1.63,6.27,6.27,0,0,1-1.67-4.68V1768H316.3v-3h3.42v-4.41h3.65V1765h5.77v3h-5.77V1779a3.57,3.57,0,0,0,.81,2.51,3.07,3.07,0,0,0,2.34.87,4.38,4.38,0,0,0,2.85-.95Z"/><path class="cls-4" d="M364.14,1757v28.19h-3.5V1782a7.91,7.91,0,0,1-3.07,2.55,9.61,9.61,0,0,1-4.11.87,10.57,10.57,0,0,1-5.24-1.29,9.19,9.19,0,0,1-3.63-3.63,11.66,11.66,0,0,1,0-10.74,9.33,9.33,0,0,1,3.63-3.61,10.57,10.57,0,0,1,5.24-1.29,9.53,9.53,0,0,1,4,.82,7.7,7.7,0,0,1,3,2.41V1757Zm-6.92,24.34a6.4,6.4,0,0,0,2.44-2.51,8.32,8.32,0,0,0,0-7.41,6.16,6.16,0,0,0-2.44-2.49,7.26,7.26,0,0,0-6.93,0,6.2,6.2,0,0,0-2.43,2.49,8.08,8.08,0,0,0,0,7.41,6.45,6.45,0,0,0,2.43,2.51,7.19,7.19,0,0,0,6.93,0Z"/><path class="cls-4" d="M374.29,1784.08a9.66,9.66,0,0,1-3.75-3.67,11.08,11.08,0,0,1,0-10.6,9.54,9.54,0,0,1,3.75-3.65,11.72,11.72,0,0,1,10.77,0,9.6,9.6,0,0,1,3.72,3.65,11.08,11.08,0,0,1,0,10.6,9.72,9.72,0,0,1-3.72,3.67,11.57,11.57,0,0,1-10.77,0Zm8.87-2.75a6.4,6.4,0,0,0,2.41-2.51,8.24,8.24,0,0,0,0-7.41,6.15,6.15,0,0,0-2.41-2.49,7.32,7.32,0,0,0-7,0,6.33,6.33,0,0,0-2.43,2.49,8.16,8.16,0,0,0,0,7.41,6.59,6.59,0,0,0,2.43,2.51,7.25,7.25,0,0,0,7,0Z"/><path class="cls-4" d="M395.19,1757h3.64v28.19h-3.64Z"/><path class="cls-4" d="M409,1784.08a9.66,9.66,0,0,1-3.75-3.67,11.08,11.08,0,0,1,0-10.6,9.54,9.54,0,0,1,3.75-3.65,11.72,11.72,0,0,1,10.77,0,9.6,9.6,0,0,1,3.72,3.65,11.08,11.08,0,0,1,0,10.6,9.72,9.72,0,0,1-3.72,3.67,11.57,11.57,0,0,1-10.77,0Zm8.87-2.75a6.33,6.33,0,0,0,2.41-2.51,8.24,8.24,0,0,0,0-7.41,6.09,6.09,0,0,0-2.41-2.49,7.3,7.3,0,0,0-6.95,0,6.29,6.29,0,0,0-2.44,2.49,8.16,8.16,0,0,0,0,7.41,6.54,6.54,0,0,0,2.44,2.51,7.23,7.23,0,0,0,6.95,0Z"/><path class="cls-4" d="M436.22,1765.76a10.36,10.36,0,0,1,4.53-.91v3.54a6.25,6.25,0,0,0-.84,0,6.1,6.1,0,0,0-4.65,1.77,7,7,0,0,0-1.7,5v10h-3.64V1765h3.49v3.38A6.3,6.3,0,0,1,436.22,1765.76Z"/><path class="cls-4" d="M463.17,1776.33H446.83a6.27,6.27,0,0,0,2.33,4.27,7.63,7.63,0,0,0,5,1.62,7.48,7.48,0,0,0,5.82-2.43l2,2.35a8.7,8.7,0,0,1-3.4,2.43,12.8,12.8,0,0,1-10.2-.47,9.39,9.39,0,0,1-3.82-3.67,10.49,10.49,0,0,1-1.35-5.32,10.71,10.71,0,0,1,1.31-5.28,9.43,9.43,0,0,1,3.61-3.67,10.32,10.32,0,0,1,5.19-1.31,10.14,10.14,0,0,1,5.15,1.31,9.31,9.31,0,0,1,3.53,3.67,11.16,11.16,0,0,1,1.27,5.4A10.37,10.37,0,0,1,463.17,1776.33Zm-14.27-6.8a6.39,6.39,0,0,0-2.07,4.18h12.92a6.54,6.54,0,0,0-2.08-4.17,6.79,6.79,0,0,0-8.77,0Z"/><path class="cls-4" d="M509.73,1767.06c1.49,1.47,2.23,3.64,2.23,6.53v11.59h-3.65V1774a6.36,6.36,0,0,0-1.35-4.41,4.94,4.94,0,0,0-3.86-1.48,5.75,5.75,0,0,0-4.4,1.73,7,7,0,0,0-1.64,5v10.37h-3.65V1774a6.36,6.36,0,0,0-1.35-4.41,4.92,4.92,0,0,0-3.85-1.48,5.79,5.79,0,0,0-4.41,1.73,7,7,0,0,0-1.63,5v10.37h-3.65V1765H482v3a7.13,7.13,0,0,1,2.89-2.37,9.61,9.61,0,0,1,4.07-.82,9,9,0,0,1,4.18,1,6.67,6.67,0,0,1,2.81,2.78,7.73,7.73,0,0,1,3.17-2.74,10.33,10.33,0,0,1,4.58-1A8.17,8.17,0,0,1,509.73,1767.06Z"/><path class="cls-4" d="M532.42,1766.9q2.22,2.05,2.22,6.12v12.16h-3.45v-2.66a5.75,5.75,0,0,1-2.61,2.15,10,10,0,0,1-4,.74,8.37,8.37,0,0,1-5.41-1.63,5.63,5.63,0,0,1-.1-8.57q2-1.62,6.16-1.62H531v-.72a4.67,4.67,0,0,0-1.37-3.61,5.76,5.76,0,0,0-4-1.25,10.5,10.5,0,0,0-3.5.59,8.82,8.82,0,0,0-2.88,1.57l-1.52-2.73a10.84,10.84,0,0,1,3.72-1.92,15.37,15.37,0,0,1,4.6-.67A9.15,9.15,0,0,1,532.42,1766.9Zm-3.63,14.77A5.37,5.37,0,0,0,531,1779v-2.82h-5.63q-4.64,0-4.64,3.12a2.83,2.83,0,0,0,1.18,2.39,5.36,5.36,0,0,0,3.27.88A6.78,6.78,0,0,0,528.79,1781.67Z"/><path class="cls-4" d="M560.79,1765v17.41q0,5.28-2.63,7.81t-7.82,2.52a18.78,18.78,0,0,1-5.44-.78,10.86,10.86,0,0,1-4.18-2.22l1.75-2.81a10.4,10.4,0,0,0,3.48,1.92,13.14,13.14,0,0,0,4.27.7q3.54,0,5.23-1.67a6.91,6.91,0,0,0,1.69-5.09v-1.6a8.08,8.08,0,0,1-3.17,2.34,10.6,10.6,0,0,1-4.09.78,11,11,0,0,1-5.22-1.24,9.2,9.2,0,0,1-3.67-3.46,10.33,10.33,0,0,1,0-10.14,9.08,9.08,0,0,1,3.67-3.44,11.13,11.13,0,0,1,5.22-1.22,10.66,10.66,0,0,1,4.24.84,7.94,7.94,0,0,1,3.21,2.47V1765Zm-6.94,15.28a6.19,6.19,0,0,0,2.47-2.34,6.46,6.46,0,0,0,.89-3.4,6.16,6.16,0,0,0-1.93-4.73,7.81,7.81,0,0,0-10,0,6.17,6.17,0,0,0-1.94,4.73,6.47,6.47,0,0,0,.9,3.4,6.19,6.19,0,0,0,2.47,2.34,7.63,7.63,0,0,0,3.59.83A7.53,7.53,0,0,0,553.85,1780.32Z"/><path class="cls-4" d="M584.59,1767.08q2.26,2.22,2.26,6.51v11.59h-3.64V1774a6.18,6.18,0,0,0-1.41-4.41,5.29,5.29,0,0,0-4-1.48,6.29,6.29,0,0,0-4.67,1.73,6.76,6.76,0,0,0-1.71,5v10.37h-3.65V1765h3.5v3a7,7,0,0,1,3-2.39,10.36,10.36,0,0,1,4.27-.84A8.28,8.28,0,0,1,584.59,1767.08Z"/><path class="cls-4" d="M607.36,1766.9q2.22,2.05,2.22,6.12v12.16h-3.46v-2.66a5.77,5.77,0,0,1-2.6,2.15,10,10,0,0,1-4,.74,8.4,8.4,0,0,1-5.42-1.63,5.62,5.62,0,0,1-.09-8.57q1.93-1.62,6.15-1.62h5.78v-.72a4.67,4.67,0,0,0-1.37-3.61,5.74,5.74,0,0,0-4-1.25,10.44,10.44,0,0,0-3.49.59,9,9,0,0,0-2.89,1.57l-1.52-2.73a10.93,10.93,0,0,1,3.72-1.92,15.42,15.42,0,0,1,4.6-.67A9.17,9.17,0,0,1,607.36,1766.9Zm-3.63,14.77a5.35,5.35,0,0,0,2.2-2.64v-2.82h-5.62c-3.1,0-4.64,1-4.64,3.12a2.8,2.8,0,0,0,1.18,2.39,5.32,5.32,0,0,0,3.27.88A6.81,6.81,0,0,0,603.73,1781.67Z"/><path class="cls-4" d="M640.3,1766.9q2.22,2.05,2.22,6.12v12.16h-3.45v-2.66a5.75,5.75,0,0,1-2.61,2.15,10,10,0,0,1-4,.74,8.37,8.37,0,0,1-5.41-1.63,5.63,5.63,0,0,1-.1-8.57q1.95-1.62,6.16-1.62h5.78v-.72a4.67,4.67,0,0,0-1.37-3.61,5.76,5.76,0,0,0-4-1.25,10.5,10.5,0,0,0-3.5.59,8.82,8.82,0,0,0-2.88,1.57l-1.52-2.73a10.84,10.84,0,0,1,3.72-1.92,15.37,15.37,0,0,1,4.6-.67A9.15,9.15,0,0,1,640.3,1766.9Zm-3.63,14.77a5.37,5.37,0,0,0,2.21-2.64v-2.82h-5.63q-4.63,0-4.63,3.12a2.82,2.82,0,0,0,1.17,2.39,5.36,5.36,0,0,0,3.27.88A6.78,6.78,0,0,0,636.67,1781.67Z"/><path class="cls-4" d="M649.29,1757h3.65v28.19h-3.65Z"/><path class="cls-4" d="M660,1760.48a2.23,2.23,0,0,1-.71-1.67,2.3,2.3,0,0,1,.71-1.69,2.36,2.36,0,0,1,1.76-.7,2.49,2.49,0,0,1,1.77.66,2.19,2.19,0,0,1,.7,1.65,2.34,2.34,0,0,1-.7,1.73,2.58,2.58,0,0,1-3.53,0Zm-.06,4.56h3.65v20.14h-3.65Z"/><path class="cls-4" d="M689.49,1765v27.51h-3.65v-10.41a8,8,0,0,1-3.06,2.43,9.26,9.26,0,0,1-4,.84,10.57,10.57,0,0,1-5.24-1.29,9.19,9.19,0,0,1-3.63-3.63,11.66,11.66,0,0,1,0-10.74,9.33,9.33,0,0,1,3.63-3.61,10.57,10.57,0,0,1,5.24-1.29,9.76,9.76,0,0,1,4.11.86,7.75,7.75,0,0,1,3.07,2.52V1765Zm-6.92,16.29a6.4,6.4,0,0,0,2.44-2.51,7.7,7.7,0,0,0,.87-3.71,7.45,7.45,0,0,0-.89-3.68,6.46,6.46,0,0,0-2.43-2.49,6.72,6.72,0,0,0-3.44-.9,7,7,0,0,0-3.48.88,6.2,6.2,0,0,0-2.43,2.49,8.08,8.08,0,0,0,0,7.41,6.45,6.45,0,0,0,2.43,2.51,7.19,7.19,0,0,0,6.93,0Z"/><path class="cls-4" d="M715.18,1765v20.14h-3.46v-3a7.17,7.17,0,0,1-2.91,2.41,9,9,0,0,1-3.93.86,8.8,8.8,0,0,1-6.35-2.22q-2.31-2.22-2.31-6.56V1765h3.64v11.17a6.25,6.25,0,0,0,1.41,4.43,5.26,5.26,0,0,0,4,1.5,6,6,0,0,0,4.56-1.75,6.87,6.87,0,0,0,1.67-4.94V1765Z"/><path class="cls-4" d="M735.87,1766.9q2.22,2.05,2.22,6.12v12.16h-3.46v-2.66a5.67,5.67,0,0,1-2.6,2.15,10,10,0,0,1-4,.74,8.37,8.37,0,0,1-5.41-1.63,5.61,5.61,0,0,1-.1-8.57c1.29-1.08,3.35-1.62,6.16-1.62h5.77v-.72a4.66,4.66,0,0,0-1.36-3.61,5.77,5.77,0,0,0-4-1.25,10.5,10.5,0,0,0-3.5.59,9,9,0,0,0-2.89,1.57l-1.52-2.73a10.89,10.89,0,0,1,3.73-1.92,15.32,15.32,0,0,1,4.6-.67A9.15,9.15,0,0,1,735.87,1766.9Zm-3.63,14.77a5.3,5.3,0,0,0,2.2-2.64v-2.82h-5.62q-4.64,0-4.64,3.12a2.83,2.83,0,0,0,1.18,2.39,5.36,5.36,0,0,0,3.27.88A6.78,6.78,0,0,0,732.24,1781.67Z"/><path class="cls-4" d="M743.91,1784.67a2.49,2.49,0,0,1-.76-1.88,2.44,2.44,0,0,1,.76-1.84,2.57,2.57,0,0,1,3.61,0,2.52,2.52,0,0,1,.72,1.86,2.55,2.55,0,0,1-.74,1.88,2.45,2.45,0,0,1-1.77.74A2.51,2.51,0,0,1,743.91,1784.67Z"/><path class="cls-5" d="M788.37,666.26C706,686.11,637.89,619,558.25,615.12c-39.85-1.92-83.27,7.16-117.38,28.39-24.4,15.19-43.29,44.71-39.67,74.18a67.63,67.63,0,0,0,21.88,41.47c5.93,5.34,13.05,8.7,18.94,14q11.67,10.56,23.28,21.22a48.88,48.88,0,0,1,.8,71c-18,17.5-32,39.9-18,60.52,28.66,42.12,45.54,46.17,48,67.88,1,8.69,1.68,1.68,1.68,1.68l23-48.77s114.53-15,154.73-49.34c28.64-24.5,40.23-64.22,66.59-90.94C758.65,789.72,780,787.1,802,780.3q40.95-12.69,81-28c15.41-5.88,31.08-12.27,43.27-23.4,17.1-15.62,13-61.61-15.66-74.09C877.7,640.52,822.85,658,788.37,666.26Z"/><polygon class="cls-6" points="335.18 1142.37 327.38 1142.37 325.27 1121.76 337.29 1121.76 335.18 1142.37"/><polygon class="cls-6" points="292.6 1142.37 284.8 1142.37 282.69 1121.76 294.7 1121.76 292.6 1142.37"/><polygon class="cls-3" points="369.81 1142.37 362.01 1142.37 359.9 1121.76 371.92 1121.76 369.81 1142.37"/><rect class="cls-1" x="328.02" y="836.78" width="1.43" height="70.94"/><rect class="cls-1" x="317.22" y="846.91" width="3.48" height="136.73"/><path class="cls-1" d="M344.82,985.23c-12.36,0-22.38-2.68-22.38-6a2.44,2.44,0,0,1,1-1.76l-.11,0h-9a2.41,2.41,0,0,1,1,1.78c0,4.23-14,6-22.66,6h0v1.3h52.73v-1.3h-.54Z"/><path class="cls-1" d="M305.9,842.87h28.57a0,0,0,0,1,0,0v.94A4.16,4.16,0,0,1,330.3,848H310.06a4.16,4.16,0,0,1-4.16-4.16v-.94A0,0,0,0,1,305.9,842.87Z"/><path class="cls-7" d="M361.17,839.29c0,1.16-4.86,2.2-12.67,2.93-26.14,2.47-69.94.67-69.94-2.93,0-.14,27-49.85,27-49.85h28.64S361.17,839.15,361.17,839.29Z"/><path class="cls-1" d="M331.2,908.47a2.42,2.42,0,1,1-2.41-2.22A2.32,2.32,0,0,1,331.2,908.47Z"/><rect class="cls-6" x="243.46" y="986.52" width="133.84" height="135.72"/><rect class="cls-3" x="338.48" y="986.52" width="38.81" height="135.72"/><rect class="cls-3" x="247.24" y="1030.98" width="91.37" height="2.34"/><rect class="cls-3" x="247.24" y="1068.53" width="91.37" height="2.34"/><path class="cls-1" d="M614.61,1142.37l-2.31-74.82a6.26,6.26,0,0,0-4.11-5.71,6.34,6.34,0,0,0-2.16-.38h-.21a6.3,6.3,0,0,0-6.09,6.48c0,.13,0,.3,0,.44l7.55,74Z"/><path class="cls-1" d="M661.74,1142.68l2.3-74.82a6.27,6.27,0,0,1,6.28-6.09h.2a6.28,6.28,0,0,1,6.09,6.48,3.52,3.52,0,0,1,0,.45l-7.55,74Z"/><path class="cls-7" d="M675.1,1074.74h-77a10,10,0,0,1-10-10h0a12.36,12.36,0,0,1,12.36-12.36h72.33a12.37,12.37,0,0,1,12.36,12.36h0A10,10,0,0,1,675.1,1074.74Z"/><path class="cls-3" d="M753.26,1142.37H179.32a2.34,2.34,0,0,0-2.36,2.13,2.29,2.29,0,0,0,2.28,2.44h574a2.29,2.29,0,0,0,2.29-2.29h0A2.29,2.29,0,0,0,753.26,1142.37Z"/><polygon class="cls-8" points="478.43 732.67 479.89 744.37 467.12 745.13 466.86 740.65 474.85 740.18 473.98 733.23 478.43 732.67"/><path class="cls-7" d="M723.17,1142.37a2.32,2.32,0,0,0-2.21-2H680.68a2.31,2.31,0,0,0-2.2,2Z"/><path class="cls-7" d="M692.82,1140.39l-12.33,0s2.42-4.83,6.75-7.17,11.81-2.29,11.81-2.29Z"/><path class="cls-3" d="M701.56,1140.42s.84-9.24-2.36-9.52-6.38,9.49-6.38,9.49Z"/><path class="cls-7" d="M751.46,1142.36c-.14-4.74-4.38-8.55-9.58-8.55s-9.45,3.81-9.59,8.55Z"/><path class="cls-7" d="M752.66,1142.38c-.1-1.14-.55-2-1.09-2H731.73c-.54,0-1,.86-1.08,2Z"/><path class="cls-1" d="M395.26,878.34c9.08-1.29,17.52,2.11,23.9,8.69,14.61,15.07,3.34,24.71,8.15,44.44A21,21,0,0,1,417,938c-20.47,5.71-43.44,2.49-58.9-13l-.25-.22c4.35-11.26,11.65-26.74,14.63-30.45C378.2,887.11,384,879.93,395.26,878.34Z"/><path class="cls-9" d="M396.82,920s-.09.46-.25,1.25c-.76,3.8-3.16,15.08-5.15,18.54-2.41,4.18,5.44,23,15.7,21.36,3.05-.49-1.73-10.11-.7-14.77.58-2.63,2.35-10.84,3.78-17.47,1.1-5.09,2-9.26,2-9.26Z"/><path class="cls-10" d="M396.57,921.27c-.07.37-.16.8-.26,1.28a17.86,17.86,0,0,0,4.35,5.05,14.12,14.12,0,0,0,9.08,3.48c.15-.73.31-1.45.46-2.15,1.1-5.09,2-9.26,2-9.26l-15.37.35S396.73,920.48,396.57,921.27Z"/><path class="cls-9" d="M407.44,886.48a18.59,18.59,0,0,0-10.81,6.19c-4.54,5.39-9.43,22.05,1.85,31.11s22.42-1.2,24.08-12.07S423.88,886.09,407.44,886.48Z"/><path class="cls-9" d="M424.3,911.58c-1.35,2.41-3.61,3.73-5.05,3s-1.52-3.32-.17-5.72,3.6-3.73,5-3S425.64,909.18,424.3,911.58Z"/><path class="cls-1" d="M409.35,886.23s-9.68,15.85-16.6,16.58-7.83,9.15-7.83,9.15,2.47-19.4,9.33-23.14S409.35,886.23,409.35,886.23Z"/><path class="cls-9" d="M395,906.58c.57,2.82-.57,5.4-2.53,5.77s-4-1.62-4.56-4.43.56-5.39,2.52-5.76S394.45,903.77,395,906.58Z"/><path class="cls-7" d="M336.49,953l1.9-1a22.44,22.44,0,0,1,30.49,10.65l41.44,86.13A23.44,23.44,0,0,0,438,1061.52l75.72-21.91c10.22-2.95,20.79,3.36,23.45,14h0l-124.83,42.46Z"/><path class="cls-11" d="M628.35,1039.69s61.31-3.59,63.7.2-21,9.2-23.16,10.59c-18.79,11.8-17.09,4.53-21.29,3.53s-15.65-1.54-15.65-1.54Z"/><path class="cls-3" d="M418.27,1065s2.21,4.12,4.31,5.14c7.73,3.74,22.71-1.94,22.71-1.94l94.21-21.76,99.85,6.63s3.41-12.21,1.76-17.2l-91.45-19.26-105,10.65Z"/><path class="cls-7" d="M537.12,1055.34h0c-.37-2.84-.86-5.66-2.6-7.74-4.6-5.5-13.34-7.75-20.72-5.69l-90,27.78a2.49,2.49,0,0,1-2.28-.43c-.89-.7-2.07-1.57-2.25-1.4-4,3.82-6.35,28-6.35,28l.12.22Z"/><path class="cls-12" d="M616.56,1041.92s9.27,3.74,17,7.65c3.33,1.68,7.09,5.19,8.5,5.53,6.67,1.64,8.15-2.27,10.84-6.31,1.71-2.55,9.06-9.66,13.85-14.51,2.8-2.84,4.65-6.86,3.4-8.19-3.75-4-12.94,6.36-20.6,9-4,1.4-8.44.17-12.77-.85-5.12-1.2-11.82-5.15-11.82-5.15Z"/><path class="cls-4" d="M407,1105.81a8.55,8.55,0,0,1-7.61-4.67L328.74,963.61a8.72,8.72,0,0,1,3.65-11.68,8.53,8.53,0,0,1,11.56,3.7l70.65,137.53a8.7,8.7,0,0,1-3.66,11.67A8.48,8.48,0,0,1,407,1105.81Z"/><path class="cls-4" d="M544.13,1057a9,9,0,0,0-11.14-6.09c-1.42.42-127,37.27-129.24,37.92l7.15,16.62,127.15-37.3A9,9,0,0,0,544.13,1057Z"/><path class="cls-4" d="M396.09,1142.37l17.48-42.75c.1-.23.18-.47.26-.71a8,8,0,0,0-15.25-4.61l-14.4,47.58a4.37,4.37,0,0,0-.12.49Z"/><path class="cls-1" d="M447.62,1026.78s63.61-36.19,88.8-39.31c9.58-1.18,100.24,45.61,100.24,45.61l-9.47,16.38s-55.24-14-72.17-20.93c-4.86-2-18.16-10.55-18.16-10.55Z"/><path class="cls-11" d="M405.28,948.64s55.22,40.68,60.6,41.38c4.05.53,44.69-11.89,44.69-11.89l-7.63,15.18s-33.33,18.74-45.25,18.24c-14-.6-46.79-28.28-46.79-28.28Z"/><path class="cls-13" d="M450.21,981.87s-12.94,18.61-13.25,23.6L409.81,985l-4.53-36.35Z"/><path class="cls-8" d="M376.74,938.35a96.48,96.48,0,0,0-4,40.51c2.69,22.16,45.49,90.05,45.49,90.05a28.73,28.73,0,0,0,15.91-9.48c2.89-3.39,13.48-32.65,13.48-32.65s-13.48-13.18-14.68-21.86a232.53,232.53,0,0,0-6.11-31.46C423.24,960,389.62,932.36,376.74,938.35Z"/><path class="cls-4" d="M376.81,1042.05l120.26-7.25,9.2,12.82c1.33,61.9,1.61,85.84,1.66,94.76h11.68c.65-10,2-34.86,4.57-96.91,0,0-18.53-18.38-23.21-21.87l-124.76.49a9,9,0,1,0,.6,18Z"/><path class="cls-9" d="M420.17,972.1l-19.59,29.28s-3-19.7-5.35-40.88a69.4,69.4,0,0,0-25.11,8.08c3.81,20.62,16.19,55.12,27.45,59.28,8.78,3.23,25.1-39.81,25.1-39.81Z"/><path class="cls-13" d="M395.38,953.26c-1.35-6.51-2.92-13-10-15.1a14.2,14.2,0,0,0-12.74,2.8c-4.14,3.39-5.3,8.84-5.28,14,0,11.71,3.66,23.14,7.25,34.52,7.9-4.4,15.14-3,24.24-4.27C399.74,974.79,397.14,961.74,395.38,953.26Z"/><path class="cls-4" d="M432.16,984.28h3.3l-.41-3.52h-2.89c-1.36,0-2.47-1.58-2.47-3.51v-3.52c0-1.94,1.11-3.51,2.47-3.51h3.71V966.7h-3.71c-2.73,0-5,3.15-5,7v3.52C427.21,981.12,429.43,984.28,432.16,984.28Z"/><path class="cls-4" d="M454.89,966.17v16.76a7,7,0,0,1-7,7h-6a7,7,0,0,1-7-7V964h19.92Z"/><path class="cls-9" d="M429.44,966.61c1.67,0,5.45,2.17,5.92,4s-.51,4-.43,5.27a13.8,13.8,0,0,1-.05,4.57c-.13.42-2.32,2.85-2.59,3.77s-9.89,4.45-9.89,4.45L420,972.21S422.24,966.79,429.44,966.61Z"/><path class="cls-6" d="M524.16,949.94l-27.72,62.47a2.5,2.5,0,0,1-3.29,1.26h0a2.49,2.49,0,0,1-1.27-3.29l27.72-62.46a2.49,2.49,0,0,1,3.29-1.27h0A2.5,2.5,0,0,1,524.16,949.94Z"/><polygon class="cls-4" points="519.15 948.93 521.22 949.87 494.43 1011.47 491.88 1010.38 519.15 948.93"/><path class="cls-11" d="M515.21,977.42s.23-5.85-2.05-4.32-1.94,5-2.51,5.73a7.57,7.57,0,0,0-2.29,4.21c-.34,2.34-1.94,4-2.17,5.5a13,13,0,0,0-.11,2.81s7.42-.94,7.65-4.1S515.21,977.42,515.21,977.42Z"/><path class="cls-7" d="M175.63,1049.26a2.57,2.57,0,1,0,2.85-2.25A2.57,2.57,0,0,0,175.63,1049.26Z"/><path class="cls-7" d="M179.45,1051a1.66,1.66,0,1,1-1.2-2.56,1.66,1.66,0,0,1,1.2,2.56Z"/><path class="cls-7" d="M162.77,1053.14a2.57,2.57,0,1,1-3.62-.31A2.56,2.56,0,0,1,162.77,1053.14Z"/><path class="cls-7" d="M162.25,1056.41a1.65,1.65,0,0,1-2.33-.2,1.68,1.68,0,0,1-.13-2,1.78,1.78,0,0,1,.32-.35,1.63,1.63,0,0,1,1.21-.39A1.66,1.66,0,0,1,162.25,1056.41Z"/><path class="cls-7" d="M174.34,1049.19a2.57,2.57,0,1,1-2.57-2.56A2.55,2.55,0,0,1,174.34,1049.19Z"/><path class="cls-7" d="M171.84,1051.37a1.66,1.66,0,1,1,1.66-1.67A1.66,1.66,0,0,1,171.84,1051.37Z"/><path class="cls-7" d="M185.74,1053.61a2.57,2.57,0,1,1-.33-3.62A2.56,2.56,0,0,1,185.74,1053.61Z"/><path class="cls-7" d="M184.77,1053.46a1.67,1.67,0,0,1-2.34.21,1.66,1.66,0,1,1,2.34-.21Z"/><path class="cls-7" d="M166.33,1083.22a2.56,2.56,0,1,0-3.44,1.15A2.55,2.55,0,0,0,166.33,1083.22Z"/><path class="cls-7" d="M165.71,1082.55a1.66,1.66,0,1,1-.64-2.39,1.66,1.66,0,0,1,.64,2.39Z"/><path class="cls-7" d="M157.73,1074.53a2.56,2.56,0,1,0-3.37-1.34A2.55,2.55,0,0,0,157.73,1074.53Z"/><path class="cls-7" d="M158.6,1072.94a1.66,1.66,0,1,1-2-2.44,1.66,1.66,0,0,1,2,2.44Z"/><path class="cls-7" d="M156.73,1062.34a2.56,2.56,0,1,0-1.72-3.19A2.57,2.57,0,0,0,156.73,1062.34Z"/><path class="cls-7" d="M156.48,1060.88a1.63,1.63,0,0,1-.13-1.26,1.66,1.66,0,1,1,.13,1.26Z"/><path class="cls-7" d="M158.32,1075.69a2.56,2.56,0,1,1-.93,3.5A2.57,2.57,0,0,1,158.32,1075.69Z"/><path class="cls-7" d="M159.59,1079.2a1.66,1.66,0,1,1,1.86-2.44A1.67,1.67,0,0,1,159.59,1079.2Z"/><path class="cls-7" d="M163.8,1052.37a2.57,2.57,0,1,0,.73-3.56A2.56,2.56,0,0,0,163.8,1052.37Z"/><path class="cls-7" d="M167.08,1052.8a1.66,1.66,0,1,1,.48-2.3,1.69,1.69,0,0,1,0,1.83A1.8,1.8,0,0,1,167.08,1052.8Z"/><path class="cls-7" d="M156.44,1063.6a2.57,2.57,0,1,1-3,2.1A2.57,2.57,0,0,1,156.44,1063.6Z"/><path class="cls-7" d="M156.23,1067.79a1.66,1.66,0,0,1-1.11-2.54,1.66,1.66,0,0,1,3,1.19A1.66,1.66,0,0,1,156.23,1067.79Z"/><path class="cls-7" d="M174.64,1065.51l3.13-13.45-.47-.11L174,1066l-1.66-14.3-.48.06,1.59,13.72-6.25-12.32-.43.22,6.51,12.83-10.46-9.88-.33.35,10,9.49-12.71-5.42-.19.45,13.24,5.64-14.37-.84,0,.48,13.78.81-13.21,4,.14.46,13.77-4.18-11.55,8.58.29.39,11.08-8.24-7.54,11.57.4.26,17-25.87-.4-.27Z"/><rect class="cls-7" x="199.04" y="1051.6" width="2.07" height="64.85" transform="translate(-816.29 657.25) rotate(-56.77)"/><path class="cls-7" d="M201.74,983.67a4.34,4.34,0,1,0,6.07-1A4.35,4.35,0,0,0,201.74,983.67Z"/><path class="cls-7" d="M206,989.33a2.81,2.81,0,1,1,.32-4.77,2.81,2.81,0,0,1-.32,4.77Z"/><path class="cls-7" d="M179.52,978.86a4.34,4.34,0,1,1-5.11-3.42A4.33,4.33,0,0,1,179.52,978.86Z"/><path class="cls-7" d="M176.07,983.28a2.81,2.81,0,0,1-3.3-2.21,2.84,2.84,0,0,1,1.44-3,3.35,3.35,0,0,1,.77-.27,2.85,2.85,0,0,1,2.11.42A2.81,2.81,0,0,1,176.07,983.28Z"/><path class="cls-7" d="M199.89,982.5a4.34,4.34,0,1,1-1.71-5.9A4.34,4.34,0,0,1,199.89,982.5Z"/><path class="cls-7" d="M194.41,983.68a2.81,2.81,0,1,1,3.81-1.11A2.81,2.81,0,0,1,194.41,983.68Z"/><path class="cls-7" d="M213.16,998.39a4.35,4.35,0,1,1,2.47-5.62A4.35,4.35,0,0,1,213.16,998.39Z"/><path class="cls-7" d="M211.83,997.37a2.81,2.81,0,1,1,1.6-3.63A2.81,2.81,0,0,1,211.83,997.37Z"/><path class="cls-7" d="M160.13,1026.33a4.35,4.35,0,1,0-6-1.13A4.34,4.34,0,0,0,160.13,1026.33Z"/><path class="cls-7" d="M159.75,1024.83a2.81,2.81,0,1,1,1-4.07,2.79,2.79,0,0,1-1,4.07Z"/><path class="cls-7" d="M154.52,1006.41a4.35,4.35,0,1,0-3.9-4.75A4.34,4.34,0,0,0,154.52,1006.41Z"/><path class="cls-7" d="M157.1,1004.76a2.81,2.81,0,1,1-1-5.28,2.81,2.81,0,0,1,1,5.28Z"/><path class="cls-7" d="M163,987.54a4.34,4.34,0,1,0,.07-6.14A4.33,4.33,0,0,0,163,987.54Z"/><path class="cls-7" d="M163.86,985.17a2.81,2.81,0,1,1,4.77,2A2.8,2.8,0,0,1,163.86,985.17Z"/><path class="cls-7" d="M154.44,1008.6a4.34,4.34,0,1,1-4.26,4.43A4.34,4.34,0,0,1,154.44,1008.6Z"/><path class="cls-7" d="M153.45,1014.85a2.81,2.81,0,1,1,4.75-2.09A2.81,2.81,0,0,1,153.45,1014.85Z"/><path class="cls-7" d="M181.68,978.56a4.34,4.34,0,1,0,4-4.66A4.34,4.34,0,0,0,181.68,978.56Z"/><path class="cls-7" d="M186.19,981.9a2.79,2.79,0,1,1,1.09-.31A2.9,2.9,0,0,1,186.19,981.9Z"/><path class="cls-7" d="M161.56,989.16a4.35,4.35,0,1,1-6.11.67A4.35,4.35,0,0,1,161.56,989.16Z"/><path class="cls-7" d="M157.82,995.2a2.81,2.81,0,1,1,4-.43A2.81,2.81,0,0,1,157.82,995.2Z"/><path class="cls-7" d="M187,1006.92l15.67-17.35L202,989l-16.33,18.08L195,984.57l-.76-.31-8.89,21.62.84-23.36-.81,0-.89,24.34-7.38-23.21-.78.25,7.09,22.28L169,987.71l-.65.5,15,19.21-20.58-13-.44.7,19.75,12.5-22.86-4.89-.17.8,23.82,5.1-24.14,3.24.11.82,23.17-3.12-20.66,11,.39.72L208,996.8l-.38-.73Z"/><rect class="cls-7" x="207.69" y="1000.32" width="3.51" height="109.77" transform="translate(-467.82 219.36) rotate(-27.79)"/><path class="cls-13" d="M230.92,1105.69s35.55-26.39,40.42-37.77-5.17-10.09-5.17-10.09,14.36-20.34,10.55-27.06-11.74,1.87-11.74,1.87,6.66-27.52.87-29.05c-10.79-2.85-19.64,26.76-19.64,26.76s.8-12.29-6-10.64c-10.18,2.5-4.79,29-4.79,29s-3.25-4.69-8.83-.23C216.61,1056.46,230.92,1105.69,230.92,1105.69Z"/><path class="cls-4" d="M225.13,1049.14c5.58-4.47,10.33-.46,10.33-.46s-5.39-26.47,4.79-29c6.76-1.65,6,10.64,6,10.64s8.85-29.61,19.64-26.76l-35.19,102C229.08,1099.23,215.77,1056.62,225.13,1049.14Z"/><path class="cls-8" d="M231,1104.77s36.43,0,44-6.36-1.7-6.8-1.7-6.8,17.41-9.24,17.15-15.41-6.15-4.92-6.15-4.92,12-10.78,9.56-16c-3.8-8-21,7.2-21,7.2s1.32-6.11-4-7.39c-8.05-1.92-16.22,21-16.22,21s3.85-10.31-1.68-9.17C240.93,1069,231,1104.77,231,1104.77Z"/><path class="cls-6" d="M229.45,1106.8s-32.33-27.6-36.28-38.71,5.54-9.29,5.54-9.29-12.43-20.22-8.4-26.39,11.06,2.49,11.06,2.49-4.67-26.59.93-27.69c10.44-2.06,17.06,26.65,17.06,26.65s0-11.74,6.32-9.76c9.53,3,2.8,27.85,2.8,27.85s3.52-9.29,8.56-4.7C246.09,1055.48,229.45,1106.8,229.45,1106.8Z"/><path class="cls-13" d="M238.2,1045.94c-5.85-3.5-8.75,1.17-8.75,1.17s5.76-20-3.77-23c-6.33-2-6.32,9.76-6.32,9.76s-6.62-28.71-17.06-26.65l27.3,99.19C231.48,1100.44,245.16,1050.12,238.2,1045.94Z"/><path class="cls-13" d="M226.2,1102.83s-35.52,0-40.46-.56.51-5,.51-5-11.05.4-12.73-2.29,2.83-3.74,2.83-3.74-11-3.19-10.49-5.54c1-4.36,13.14-1.51,13.14-1.51s-4.52-2.19-2.68-4.23c2.77-3.08,14.59,5.28,14.59,5.28s-4.44-8.39-1.82-9.46C193.79,1073.89,226.2,1102.83,226.2,1102.83Z"/><path class="cls-7" d="M200.56,1142.82h59.12a35.41,35.41,0,0,0,11.95-26.74,32.11,32.11,0,0,0-3.42-14.31l-76.23.85a34.08,34.08,0,0,0-3.15,14.82A35.19,35.19,0,0,0,200.56,1142.82Z"/><path class="cls-13" d="M451.46,924.43c1.42-4.69-1.71-9.82-6.39-9.62a.78.78,0,0,0-.06,1.55,4.25,4.25,0,0,1,3.71,3.24,5.47,5.47,0,0,1,.11,2.51c-.29,1.6-1.06,2.16-2.1,3.7l1.83.91A9.86,9.86,0,0,1,451.32,942a9.27,9.27,0,0,1-6.59,2.93c-1.94.51-3.33,1.59-3.65,3.52a24.89,24.89,0,0,0,.42,6.93.85.85,0,0,0,1.64,0,49.68,49.68,0,0,0,1-6.55.19.19,0,0,0,0-.1.2.2,0,0,0,0-.08,1.61,1.61,0,0,1,1.07-.63,11.75,11.75,0,0,0,7.84-3C459.32,939.63,458.88,929,451.46,924.43Zm-6,23.54Z"/><path class="cls-5" d="M237.62,985.82h39.26a6.57,6.57,0,0,0,6.3-6.8h0a6.56,6.56,0,0,0-6.3-6.8H237.62a11.07,11.07,0,0,1,.28,13.21Z"/><path class="cls-7" d="M282.67,979h0a6.6,6.6,0,0,0-6.38-6.8H236.9a.35.35,0,0,1-.33-.36h0a.34.34,0,0,1,.33-.34h62.48a7.27,7.27,0,0,1,7,7.5h0a7.28,7.28,0,0,1-7,7.5H236.9a.34.34,0,0,1-.33-.35h0a.34.34,0,0,1,.33-.35h39.39A6.61,6.61,0,0,0,282.67,979Z"/><path class="cls-7" d="M581.22,649.48c2.62,5.67,1,12.07-3.79,14.38s-11-.39-13.8-6.12-1.16-12.3,3.67-14.66a8.47,8.47,0,0,1,4-.83l-8.46-15.92-20.72,19.31,14.47,27.23h0a.41.41,0,0,1,.05.09c2.8,5.74,1.16,12.3-3.67,14.65s-11-.39-13.8-6.13-1.16-12.29,3.67-14.65a8.41,8.41,0,0,1,4-.83l-15.5-29.16a2.2,2.2,0,0,1,.31-2.66l26.56-23.47a2,2,0,0,1,3,.86l20.14,37.89Z"/><path class="cls-6" d="M619.39,865.15a32,32,0,1,0,42.67-14.92A31.94,31.94,0,0,0,619.39,865.15Z"/><path class="cls-14" d="M661.37,891a17.08,17.08,0,1,1-30.78-14.83Z"/><path class="cls-7" d="M692.89,774.93l10,2s14.61-6.82,15.72-10.11.6-10.87,2.74-11.34a6.6,6.6,0,0,1,8,4.74c1.19,3.64-2.94,15.13-1.94,16.18.62.65,6.33,2,10.52,2.83a7.54,7.54,0,0,1,5.7,5.42h0a4.16,4.16,0,0,1-2,4.75L739,790.79l1.24,2.74a4.15,4.15,0,0,1-2,5.43l-2,1,.9,1.66a4.15,4.15,0,0,1-2,5.77l-1.8.77.14.49a4.16,4.16,0,0,1-2.43,5l-1.79.71-26.62-5.26a18.33,18.33,0,0,1-6.95-3l-9.05-3.42a2.13,2.13,0,0,1-1.3-2.44l5-23.65A2.13,2.13,0,0,1,692.89,774.93Z"/><polygon class="cls-4" points="900.01 723.87 889.45 731.68 875.67 721.73 858.89 731.88 846.66 726.13 841.58 731.98 857.94 739.68 873.83 730.06 888.17 740.41 904.06 728.65 900.01 723.87"/><path class="cls-4" d="M645.52,768.87l-2.67.75a2.15,2.15,0,0,1-2.61-1.29l-.1-.25a4.83,4.83,0,0,0-5.81-2.87l-15.76,4.47a4.82,4.82,0,0,0-3.44,5.49l0,.27a2.18,2.18,0,0,1-1.55,2.47l-8.54,2.42a11.74,11.74,0,0,0-8.09,14.5l4.16,14.68a11.74,11.74,0,0,0,14.5,8.09l40.43-11.47a11.72,11.72,0,0,0,8.09-14.49L660,777A11.74,11.74,0,0,0,645.52,768.87Z"/><path class="cls-5" d="M635.33,792.74a12.56,12.56,0,1,1-15.51-8.66A12.55,12.55,0,0,1,635.33,792.74Z"/><path class="cls-4" d="M632.39,793.57A9.51,9.51,0,1,1,620.65,787,9.51,9.51,0,0,1,632.39,793.57Z"/><polygon class="cls-8" points="791.66 717.78 783.36 719.22 781.11 727.51 771.68 728.47 772.01 738.04 761.4 739.59 760.62 748.45 750.65 751.6 749.46 747.83 756.91 745.47 757.74 736.13 767.94 734.64 767.6 724.9 778 723.85 780.19 715.75 787.89 714.41 788.22 708.79 792.17 709.02 791.66 717.78"/><path class="cls-7" d="M534.23,801.46l-56.07,8A10,10,0,0,1,466.81,801l-4.61-32.29a10,10,0,0,1,8.52-11.34l56.07-8a10,10,0,0,1,11.34,8.51l4.61,32.28A10,10,0,0,1,534.23,801.46Z"/><path class="cls-8" d="M516.76,778.53a2.19,2.19,0,0,0-.54-3.76l-22.34-9a2.2,2.2,0,0,0-3,2.35l3.4,23.83a2.2,2.2,0,0,0,3.53,1.42Z"/><polygon class="cls-4" points="555.93 872.16 551.73 863.76 564.51 855.51 559.88 842.46 568.43 834.73 564.52 830.4 553.08 840.75 557.46 853.11 544.17 861.69 550.49 874.34 555.93 872.16"/><polygon class="cls-7" points="583.28 897.86 568.26 894.83 564.52 908.6 549.59 906.27 544.39 919 532.93 919.08 532.97 924.87 548.3 924.77 553.22 912.71 568.75 915.14 572.43 901.58 586.04 904.33 583.28 897.86"/><path class="cls-6" d="M728.34,659.85c-.65-4.06-5.73-6.64-11.28-5.46A215.49,215.49,0,0,0,648.44,682c-4.82,3-6.64,8.4-4.21,11.83h0c19.19,27.55,11.79,17.47,23.89,32.2a8.93,8.93,0,0,0,11.54,1.78h0A9,9,0,0,0,683,716.05l-3.67-6.81c-1.43-2.59-.18-6,2.85-7.52a183,183,0,0,1,24.61-10.11c3.21-1.05,6.49.48,7.29,3.3l2.13,7.35a8.82,8.82,0,0,0,10.58,5.87h0a9,9,0,0,0,7-9.34C733.35,694.26,729.78,668.29,728.34,659.85Z"/><path class="cls-4" d="M661.48,685.2a6.27,6.27,0,0,1,3.32-.41l-1.9-4.64-6,2.45,1.9,4.64A6.26,6.26,0,0,1,661.48,685.2Z"/><path class="cls-4" d="M658,693.48a6.38,6.38,0,0,1-.4-3.32l-4.65,1.9,2.45,6,4.65-1.9A6.28,6.28,0,0,1,658,693.48Z"/><path class="cls-4" d="M666.29,697a6.42,6.42,0,0,1-3.33.4l1.9,4.65,6-2.45-1.9-4.65A6.31,6.31,0,0,1,666.29,697Z"/><path class="cls-4" d="M667.72,686a6.37,6.37,0,0,1,2,2.65,6.22,6.22,0,0,1,.4,3.33l4.65-1.9-2.45-6Z"/><path class="cls-4" d="M667.47,689.61a3.87,3.87,0,1,1-5.06-2.12A3.87,3.87,0,0,1,667.47,689.61Z"/><path class="cls-4" d="M721,668.25a8.29,8.29,0,1,1-10.8-4.53A8.28,8.28,0,0,1,721,668.25Z"/><path class="cls-6" d="M431.14,673.49c-9.6,14.33,3.22,33.3,20.19,29.83a13,13,0,0,1,8.93,1.46l9.33,5.24a5.67,5.67,0,0,0,7.47-1.79l3.64-5.42a5.67,5.67,0,0,0-1.18-7.59c-8.43-6.69-12-8.55-13.13-14.36C463.17,663.84,440.76,659.17,431.14,673.49Z"/><path class="cls-8" d="M470,704h0a1.57,1.57,0,0,1-2.19.41l-18.91-13-7,.85a1.57,1.57,0,0,1-.38-3.12l8.14-1,19.89,13.67A1.57,1.57,0,0,1,470,704Z"/><path class="cls-8" d="M475.12,698h0a1.59,1.59,0,0,0-.45-2.18l-19.2-12.57-1.85-6.76a1.57,1.57,0,1,0-3,.83l2.16,7.9L473,698.4A1.57,1.57,0,0,0,475.12,698Z"/><path class="cls-4" d="M460,704.66l.24.12,9.33,5.24a5.67,5.67,0,0,0,7.47-1.79l3.64-5.42a5.67,5.67,0,0,0-1.18-7.59c-3.75-3-6.54-5-8.58-6.83Z"/><path class="cls-6" d="M470,652.09c1.18-2.35,1.43-2.11,1.24-4.76-.12-1.65-2.42-2.68-3.78-1.89-2.56,1.5-3.7,4.66-5,7.21s-2.66,5.07-4,7.61a3.33,3.33,0,0,0,.88,4.5c1.34.9,3.68.67,4.51-.89C468.74,654.6,468.29,655.49,470,652.09Z"/><path class="cls-6" d="M447.78,717.76a38.66,38.66,0,0,0,.62,6.42c.27,2.17.4,4.21,1.44,6.18s4.52,2.16,5.08-.33a10.15,10.15,0,0,0,.3-3.64c-.12-1-.27-1.95-.4-2.93a37.69,37.69,0,0,0-1-6.1,3.05,3.05,0,0,0-6,.4Z"/><path class="cls-6" d="M423.83,725.24a36,36,0,0,1,4.62-7.07,40,40,0,0,0,2.76-3.08c.81-1.24,1.89-2.51,2-4.07a2,2,0,0,0-1.82-2.06c-1.7-.24-3.2.89-4.57,1.68s-2.69,2.61-3.74,3.91a39.28,39.28,0,0,0-5.19,8.7,3.15,3.15,0,0,0,2,4c1.77.6,3.23-.45,4-2Z"/><path class="cls-6" d="M400.44,696a89.1,89.1,0,0,0,9-3.29c5.94-2.57,7.43-3.54,7.77-5.93a2.79,2.79,0,0,0-1.86-2.76c-1.61-.73-3.13.13-4.56.86s-2.61,1.29-3.94,1.88a72.43,72.43,0,0,1-7.63,2.89,3.34,3.34,0,0,0-2.55,3.8c.31,1.57,2.12,3.07,3.8,2.55Z"/><path class="cls-6" d="M479.34,681.16c3.32-1,6.66-1.92,9.92-3.11a3.05,3.05,0,0,0,1.76-2.63,3.12,3.12,0,0,0-3.73-3.27c-3.11.74-6.15,1.72-9.21,2.65a3.35,3.35,0,0,0-2.56,3.81,3.27,3.27,0,0,0,3.82,2.55Z"/><path class="cls-6" d="M401.86,661c2.63,1.47,5.28,2.9,7.92,4.33s5.53,3.46,8.67,3.32c1.51-.07,3.16-1.65,2.18-3.24-1.83-3-3.86-3.64-7.26-5.42-2.68-1.39-5.36-2.79-8.05-4.14a3.22,3.22,0,0,0-4.31.84,3.14,3.14,0,0,0,.85,4.31Z"/><path class="cls-6" d="M426.1,633.51c.26,3,.56,6,.87,9s.26,6.51,2.15,9c.9,1.21,3.13,1.68,3.9,0,1.44-3.2.83-5.24.39-9-.36-3-.71-6-1.11-9a3.19,3.19,0,0,0-3.13-3.07,3.11,3.11,0,0,0-3.07,3.12Z"/><path class="cls-7" d="M503.51,893c-2.85-.74-5.28-3-5.43-4.94s1.88-2.91,4.51-2.06,5.06,3.06,5.43,4.94S506.37,893.72,503.51,893Z"/><path class="cls-4" d="M500.13,867.39l-11.07-4.16-9.7,6.77a1.63,1.63,0,0,1-2.56-1.41l.54-11.82-9.44-7.13a1.63,1.63,0,0,1,.55-2.87l11.41-3.14,3.87-11.18a1.62,1.62,0,0,1,2.89-.36l6.52,9.87,11.82.23a1.63,1.63,0,0,1,1.24,2.64l-7.37,9.25,3.43,11.32A1.62,1.62,0,0,1,500.13,867.39Z"/><path class="cls-7" d="M610.49,695.83l-7.18-6.29-9.26,2.36a1.32,1.32,0,0,1-1.53-1.79l3.77-8.78-5.1-8.07a1.31,1.31,0,0,1,1.23-2l9.51.87,6.1-7.35a1.32,1.32,0,0,1,2.29.55l2.11,9.31,8.87,3.54a1.32,1.32,0,0,1,.19,2.35l-8.2,4.88-.62,9.53A1.31,1.31,0,0,1,610.49,695.83Z"/><polygon class="cls-13" points="611.64 744 603.97 736.83 594.03 740.84 586 732.2 576.73 739.73 567.21 730.35 557.83 736.24 547.2 728.72 550.04 724.69 557.99 730.32 567.9 724.11 577.05 733.12 586.47 725.46 595.33 735 605.03 731.08 612.15 737.73 617.98 733.82 620.73 737.92 611.64 744"/><path class="cls-6" d="M508.33,956.07c-18.33.29-32.67-4.59-46.12-16.16,1.58-.65,7.19-2.43,8.12-2.61-12.31-12.63-15.75-25.42-15.28-40.73a44.32,44.32,0,0,0,21.17,6.87A40.9,40.9,0,0,0,486.4,936a29.68,29.68,0,0,0,5.66-4.09C494.2,940.28,501.92,948.51,508.33,956.07Z"/><polygon class="cls-13" points="853.13 703.64 827.22 687.85 847.08 650.3 848.45 666.81 861.55 659.12 861.05 673.24 877.26 668.68 853.13 703.64"/><path class="cls-6" d="M826.78,761.36s7.59-.66,12.15,5.61c4.06,5.6,1.44,13.39-4.87,18-7.3,5.3-19.76,6.32-37.19-1.87-2.4-19.1,2.42-30.64,9.73-35.94,6.31-4.59,14.53-4.67,18.59.93C829.75,754.35,826.78,761.36,826.78,761.36Z"/><path class="cls-4" d="M763.72,691.4c0,2.48-2.51,4.49-5.6,4.49s-5.61-2-5.61-4.49,2.51-4.48,5.61-4.48S763.72,688.92,763.72,691.4Z"/><polygon class="cls-13" points="573.27 762.29 568.46 757.24 570.49 755.3 573.15 758.1 576.77 753.85 578.91 755.66 573.27 762.29"/><polygon class="cls-6" points="899.9 695.83 893.68 698.99 892.41 696.49 895.85 694.74 892.82 690.05 895.17 688.53 899.9 695.83"/></g></g></svg>